<svg xmlns="http://www.w3.org/2000/svg" width="270.29mm" height="382.4mm" viewBox="0 0 766.17 1083.98"><defs><style>.cls-1,.cls-3{fill:none;}.cls-1,.cls-3,.cls-5{stroke:#000;}.cls-1{stroke-linecap:round;stroke-linejoin:round;stroke-width:0.71px;}.cls-2,.cls-4{fill:red;}.cls-3,.cls-5{stroke-miterlimit:10;}.cls-4{fill-rule:evenodd;}.cls-5{fill:#fff;}</style></defs><g id="Layer_10" data-name="Layer 10"><polygon class="cls-1" points="506.08 594.09 484.19 594.09 484.19 585.59 475.43 585.59 475.43 1039.66 484.19 1039.66 484.19 1031.15 506.08 1031.15 506.08 594.09"/><path class="cls-2" d="M414.43,544.32l3.19-4.82h-2.88v-1.73h5.42V539L417,543.84h3.21v1.73h-5.75Z" transform="translate(-24.26 -60.68)"/><path class="cls-2" d="M420.81,542.57a3,3,0,1,1,3,3.14A3,3,0,0,1,420.81,542.57Zm3.84,0c0-.91-.24-1.49-.86-1.49s-.87.58-.87,1.49.24,1.49.87,1.49S424.65,543.48,424.65,542.57Z" transform="translate(-24.26 -60.68)"/><path class="cls-2" d="M427.53,542.57a3,3,0,1,1,3,3.14A3,3,0,0,1,427.53,542.57Zm3.84,0c0-.91-.24-1.49-.86-1.49s-.87.58-.87,1.49.24,1.49.87,1.49S431.37,543.48,431.37,542.57Z" transform="translate(-24.26 -60.68)"/><path class="cls-2" d="M434.56,539.57h1.68l.15.73h0a2.49,2.49,0,0,1,1.8-.87,1.69,1.69,0,0,1,1.66,1,2.51,2.51,0,0,1,1.85-1c1.31,0,1.89,1,1.89,2.45v3.69h-2.06v-3.43c0-.77-.19-1-.6-1a1.27,1.27,0,0,0-.84.45v3.94h-2.06v-3.43c0-.77-.2-1-.6-1a1.27,1.27,0,0,0-.84.45v3.94h-2.07Z" transform="translate(-24.26 -60.68)"/><path class="cls-2" d="M627.48,541.73a3.83,3.83,0,0,1,3.89-4.1,3.44,3.44,0,0,1,2.54,1l-1.08,1.25a1.87,1.87,0,0,0-1.39-.51c-1.05,0-1.84.84-1.84,2.26s.64,2.28,2,2.28a1.11,1.11,0,0,0,.6-.15v-1.08h-1.15V541h3v3.71a3.93,3.93,0,0,1-2.64,1A3.69,3.69,0,0,1,627.48,541.73Z" transform="translate(-24.26 -60.68)"/><path class="cls-2" d="M635.09,542.57a3,3,0,1,1,3,3.14A3,3,0,0,1,635.09,542.57Zm3.84,0c0-.91-.24-1.49-.86-1.49s-.87.58-.87,1.49.24,1.49.87,1.49S638.93,543.48,638.93,542.57Z" transform="translate(-24.26 -60.68)"/><path class="cls-2" d="M641.81,542.57a3,3,0,1,1,3,3.14A3,3,0,0,1,641.81,542.57Zm3.84,0c0-.91-.24-1.49-.86-1.49s-.87.58-.87,1.49.24,1.49.87,1.49S645.65,543.48,645.65,542.57Z" transform="translate(-24.26 -60.68)"/><path class="cls-2" d="M648.51,546.55a1.3,1.3,0,0,1,.84-1.15v0a1.17,1.17,0,0,1-.55-1,1.46,1.46,0,0,1,.67-1.13v0a1.87,1.87,0,0,1-.82-1.54c0-1.49,1.25-2.18,2.57-2.18a3.27,3.27,0,0,1,1,.14h2.23v1.49h-.86a2.41,2.41,0,0,1,.09.62c0,1.42-1.08,2-2.42,2a3,3,0,0,1-.67-.08.39.39,0,0,0-.15.35c0,.26.24.36.84.36h.9c1.5,0,2.37.45,2.37,1.56,0,1.29-1.35,2.18-3.48,2.18C649.66,548,648.51,547.63,648.51,546.55Zm4-.33c0-.32-.29-.36-.8-.36h-.47a3,3,0,0,1-.87-.08.61.61,0,0,0-.21.44c0,.38.48.55,1.17.55S652.54,546.55,652.54,546.22Zm-.67-4.61c0-.55-.27-.81-.65-.81s-.65.26-.65.81.27.84.65.84S651.87,542.19,651.87,541.61Z" transform="translate(-24.26 -60.68)"/><path class="cls-2" d="M655.4,543.46v-6.24h2.06v6.31c0,.41.19.53.34.53a.59.59,0,0,0,.21,0l.24,1.52a2.71,2.71,0,0,1-1,.16C655.85,545.71,655.4,544.8,655.4,543.46Z" transform="translate(-24.26 -60.68)"/><path class="cls-2" d="M658.66,542.57a3,3,0,0,1,2.88-3.14c1.77,0,2.61,1.29,2.61,2.9a4,4,0,0,1-.08.86h-3.42a1.26,1.26,0,0,0,1.39,1,2.54,2.54,0,0,0,1.25-.36l.65,1.23a4.09,4.09,0,0,1-2.19.69A2.94,2.94,0,0,1,658.66,542.57Zm3.74-.72a.75.75,0,0,0-.81-.86.94.94,0,0,0-1,.86Z" transform="translate(-24.26 -60.68)"/><rect class="cls-1" x="156.43" y="345.78" width="34.02" height="34.02"/><circle class="cls-1" cx="145.66" cy="356.61" r="4"/><circle class="cls-1" cx="145.66" cy="370.79" r="4"/><polygon class="cls-1" points="207.03 304.94 207.03 296.33 164.51 296.33 164.51 304.94 16.6 304.94 16.6 304.94 8.1 304.94 8.1 326.84 16.6 326.84 66.69 425.03 59.08 428.91 78.4 466.79 86.02 462.9 116.58 522.82 164.51 522.82 164.51 531.32 207.03 531.32 207.03 522.82 264.25 522.82 264.25 304.94 207.03 304.94"/><polygon class="cls-1" points="207.03 36.23 207.03 27.72 164.51 27.72 164.51 36.23 116.58 36.23 86.02 96.14 78.4 92.25 59.08 130.13 66.69 134.01 16.6 232.2 8.1 232.2 8.1 254.1 16.6 254.1 164.51 254.1 164.51 262.71 207.03 262.71 207.03 254.1 264.25 254.1 264.25 36.23 207.03 36.23"/></g><g id="Layer_14" data-name="Layer 14"><path class="cls-2" d="M240.33,82c0-1.09,0-1.75-.06-2.32h2.16l.08,1.25h.06a2,2,0,0,1,1.83-1.41,1.64,1.64,0,0,1,.51,0V82a2.93,2.93,0,0,0-.65-.07c-.74,0-1.25.31-1.37.87a1.94,1.94,0,0,0,0,.44v3.4h-2.52Z" transform="translate(-24.26 -60.68)"/><path class="cls-2" d="M248.46,77.79a1.29,1.29,0,0,1-2.58,0,1.29,1.29,0,0,1,2.58,0Zm-2.55,8.8V79.7h2.52v6.89Z" transform="translate(-24.26 -60.68)"/><path class="cls-2" d="M256.85,79.7c0,.42-.07,1-.07,2.13v3.75a3.92,3.92,0,0,1-1.07,3.08,4.35,4.35,0,0,1-2.91.86,5.81,5.81,0,0,1-2.56-.52l.47-1.91a4.38,4.38,0,0,0,2,.51A1.45,1.45,0,0,0,254.3,86v-.3h0a2.12,2.12,0,0,1-1.72.77c-1.68,0-2.9-1.35-2.9-3.35,0-2.17,1.4-3.62,3.12-3.62a2,2,0,0,1,1.78.89h0l.08-.73Zm-2.59,2.84c0-.1,0-.22,0-.32a.9.9,0,0,0-.9-.78c-.6,0-1.12.58-1.12,1.68,0,.89.42,1.55,1.12,1.55a.88.88,0,0,0,.88-.69,1.73,1.73,0,0,0,0-.51Z" transform="translate(-24.26 -60.68)"/><path class="cls-2" d="M258.34,76.64h2.52v3.79h0a2.67,2.67,0,0,1,.81-.65,2.46,2.46,0,0,1,1.06-.24c1.55,0,2.4,1.11,2.4,3.06v4h-2.52V82.88c0-.81-.26-1.3-.89-1.3a.84.84,0,0,0-.82.54,1.18,1.18,0,0,0-.07.41v4.06h-2.52Z" transform="translate(-24.26 -60.68)"/><path class="cls-2" d="M269.39,77.74v2h1.43v1.85h-1.43v2c0,.83.2,1.16.8,1.16a3,3,0,0,0,.6-.05v1.92a5.22,5.22,0,0,1-1.5.18,2.41,2.41,0,0,1-1.72-.62,2.92,2.92,0,0,1-.64-2.15V81.55h-.86V79.7h.86V78.3Z" transform="translate(-24.26 -60.68)"/><path class="cls-2" d="M564.15,86.59c0-.45.06-1.33.06-2.19V76.64h2.52V80.4h0a2.38,2.38,0,0,1,2-.86c1.64,0,2.84,1.35,2.82,3.46,0,2.5-1.57,3.74-3.17,3.74a2.17,2.17,0,0,1-2-1h0l-.1.88Zm2.58-3a3.27,3.27,0,0,0,0,.35,1,1,0,0,0,1,.83c.75,0,1.22-.56,1.22-1.65s-.37-1.64-1.22-1.64a1,1,0,0,0-1,.85c0,.11,0,.23,0,.34Z" transform="translate(-24.26 -60.68)"/><path class="cls-2" d="M576.71,86.59l-.14-.6h0a2.5,2.5,0,0,1-1.92.75,2.16,2.16,0,0,1-2.27-2.17c0-1.85,1.66-2.66,4-2.67v-.06c0-.28-.21-.59-1.12-.59a4.24,4.24,0,0,0-2,.52l-.45-1.61a6.47,6.47,0,0,1,2.86-.62c2.36,0,3.19,1.32,3.19,3v2.33a9.07,9.07,0,0,0,.11,1.68Zm-.29-3.15c-1,0-1.61.29-1.61.89a.63.63,0,0,0,.71.66.92.92,0,0,0,.87-.63,1.42,1.42,0,0,0,0-.36Z" transform="translate(-24.26 -60.68)"/><path class="cls-2" d="M585.7,86.45a5.33,5.33,0,0,1-1.9.28c-2.29,0-3.73-1.33-3.73-3.53,0-2,1.35-3.66,4-3.66a5.11,5.11,0,0,1,1.59.24l-.36,1.87a2.75,2.75,0,0,0-1.08-.19,1.66,1.66,0,0,0,.06,3.31,2.83,2.83,0,0,0,1.1-.17Z" transform="translate(-24.26 -60.68)"/><path class="cls-2" d="M589.27,82.5h0a8.14,8.14,0,0,1,.45-.84l1.13-2h3l-2.38,2.77,2.73,4.12h-3.11L589.78,84l-.51.67v2h-2.52v-10h2.52Z" transform="translate(-24.26 -60.68)"/><path class="cls-2" d="M423.63,356c0-.45.05-1.34.05-2.19V346h2.52v3.75h0a2.42,2.42,0,0,1,2-.85c1.64,0,2.85,1.34,2.82,3.46,0,2.49-1.57,3.74-3.17,3.74a2.2,2.2,0,0,1-2-1h0l-.09.89Zm2.57-3c0,.12,0,.25,0,.35a1.05,1.05,0,0,0,1,.82c.74,0,1.22-.56,1.22-1.65s-.38-1.64-1.22-1.64a1,1,0,0,0-1,.86c0,.11,0,.22,0,.33Z" transform="translate(-24.26 -60.68)"/><path class="cls-2" d="M439,353.62c0,1,0,1.77.05,2.36H436.9l-.11-.92h-.06a2.37,2.37,0,0,1-2.08,1.07c-1.54,0-2.44-1-2.44-3v-4.07h2.52v3.66c0,.88.29,1.36.88,1.36a.85.85,0,0,0,.82-.59.8.8,0,0,0,.07-.36v-4.07H439Z" transform="translate(-24.26 -60.68)"/><path class="cls-2" d="M443.35,347.12v2h1.43v1.85h-1.43v2c0,.82.2,1.16.8,1.16a2.88,2.88,0,0,0,.61-.06v1.92a5.26,5.26,0,0,1-1.5.19,2.48,2.48,0,0,1-1.73-.62,3,3,0,0,1-.64-2.16v-2.41H440v-1.85h.86v-1.4Z" transform="translate(-24.26 -60.68)"/><path class="cls-2" d="M448.72,347.12v2h1.42v1.85h-1.42v2c0,.82.19,1.16.79,1.16a2.88,2.88,0,0,0,.61-.06v1.92a5.26,5.26,0,0,1-1.5.19,2.45,2.45,0,0,1-1.72-.62,2.9,2.9,0,0,1-.65-2.16v-2.41h-.85v-1.85h.85v-1.4Z" transform="translate(-24.26 -60.68)"/><path class="cls-2" d="M458.28,352.46a3.48,3.48,0,0,1-3.72,3.67,3.43,3.43,0,0,1-3.66-3.56,3.48,3.48,0,0,1,3.8-3.64A3.38,3.38,0,0,1,458.28,352.46Zm-4.78.07c0,1,.34,1.82,1.13,1.82s1.05-.71,1.05-1.82c0-.95-.31-1.82-1.07-1.82S453.5,351.62,453.5,352.53Z" transform="translate(-24.26 -60.68)"/><path class="cls-2" d="M459.5,351.42c0-.91,0-1.71-.06-2.34h2.17l.11.89h.06a2.46,2.46,0,0,1,2.06-1c1.61,0,2.48,1.09,2.48,3V356H463.8v-3.76c0-.8-.29-1.26-.89-1.26a.87.87,0,0,0-.82.6,1.31,1.31,0,0,0-.07.51V356H459.5Z" transform="translate(-24.26 -60.68)"/><path class="cls-2" d="M467.94,353.86a4.52,4.52,0,0,0,1.92.52c.53,0,.74-.13.74-.38s-.16-.36-.9-.6c-1.51-.48-2-1.3-2-2.1,0-1.38,1.17-2.37,3-2.37a5.11,5.11,0,0,1,2.06.39l-.4,1.71a4.08,4.08,0,0,0-1.53-.38c-.43,0-.69.11-.69.4s.23.36,1,.63c1.36.44,1.88,1.14,1.89,2.14,0,1.31-1,2.3-3.15,2.3a5.39,5.39,0,0,1-2.35-.48Z" transform="translate(-24.26 -60.68)"/><path class="cls-2" d="M478.86,349.08l.4,2.54c.12.69.23,1.47.34,2.28h0c.12-.81.32-1.61.46-2.27l.55-2.55h2l.52,2.46c.17.77.34,1.55.46,2.36h0c.08-.81.21-1.61.34-2.39l.42-2.43h2.46l-2.06,6.9H482.4l-.47-2.05c-.14-.64-.24-1.22-.38-2.1h0a13.28,13.28,0,0,1-.37,2.07l-.5,2.08h-2.38l-2-6.9Z" transform="translate(-24.26 -60.68)"/><path class="cls-2" d="M490.28,347.18a1.29,1.29,0,0,1-2.58,0,1.29,1.29,0,0,1,2.58,0Zm-2.55,8.8v-6.9h2.52V356Z" transform="translate(-24.26 -60.68)"/><path class="cls-2" d="M494.58,347.12v2H496v1.85h-1.43v2c0,.82.2,1.16.8,1.16a2.85,2.85,0,0,0,.6-.06v1.92a5.15,5.15,0,0,1-1.5.19,2.45,2.45,0,0,1-1.72-.62,3,3,0,0,1-.65-2.16v-2.41h-.85v-1.85h.85v-1.4Z" transform="translate(-24.26 -60.68)"/><path class="cls-2" d="M497.18,346h2.52v3.78h0a2.64,2.64,0,0,1,.81-.64,2.33,2.33,0,0,1,1.06-.24c1.55,0,2.4,1.11,2.4,3.05v4h-2.52v-3.72c0-.81-.26-1.3-.89-1.3a.84.84,0,0,0-.82.55,1.12,1.12,0,0,0-.07.4V356h-2.52Z" transform="translate(-24.26 -60.68)"/><path class="cls-2" d="M511.1,347.12v2h1.43v1.85H511.1v2c0,.82.2,1.16.8,1.16a2.85,2.85,0,0,0,.6-.06v1.92a5.15,5.15,0,0,1-1.5.19,2.45,2.45,0,0,1-1.72-.62,3,3,0,0,1-.64-2.16v-2.41h-.86v-1.85h.86v-1.4Z" transform="translate(-24.26 -60.68)"/><path class="cls-2" d="M520.66,352.46a3.48,3.48,0,0,1-3.72,3.67,3.43,3.43,0,0,1-3.66-3.56,3.48,3.48,0,0,1,3.8-3.64A3.38,3.38,0,0,1,520.66,352.46Zm-4.77.07c0,1,.33,1.82,1.12,1.82s1-.71,1-1.82c0-.95-.31-1.82-1.07-1.82S515.89,351.62,515.89,352.53Z" transform="translate(-24.26 -60.68)"/><path class="cls-2" d="M528.78,349.08c0,.42-.07,1-.07,2.13V355a3.92,3.92,0,0,1-1.06,3.08,4.41,4.41,0,0,1-2.91.85,5.85,5.85,0,0,1-2.57-.52l.48-1.9a4.36,4.36,0,0,0,2,.5,1.45,1.45,0,0,0,1.59-1.55v-.31h0a2.12,2.12,0,0,1-1.73.77c-1.68,0-2.9-1.34-2.9-3.35,0-2.17,1.4-3.61,3.13-3.61a2,2,0,0,1,1.78.88h0l.09-.73Zm-2.59,2.85a1.66,1.66,0,0,0,0-.32.89.89,0,0,0-.89-.79c-.6,0-1.12.59-1.12,1.68,0,.9.42,1.56,1.12,1.56a.88.88,0,0,0,.88-.69,2.2,2.2,0,0,0,0-.52Z" transform="translate(-24.26 -60.68)"/><path class="cls-2" d="M537.13,349.08c0,.42-.07,1-.07,2.13V355a3.92,3.92,0,0,1-1.07,3.08,4.41,4.41,0,0,1-2.91.85,5.81,5.81,0,0,1-2.56-.52l.47-1.9a4.39,4.39,0,0,0,2,.5,1.45,1.45,0,0,0,1.6-1.55v-.31h0a2.12,2.12,0,0,1-1.72.77c-1.68,0-2.9-1.34-2.9-3.35,0-2.17,1.4-3.61,3.12-3.61a2,2,0,0,1,1.78.88h0l.08-.73Zm-2.59,2.85a3.16,3.16,0,0,0,0-.32.9.9,0,0,0-.9-.79c-.6,0-1.12.59-1.12,1.68,0,.9.42,1.56,1.12,1.56a.88.88,0,0,0,.88-.69,1.77,1.77,0,0,0,0-.52Z" transform="translate(-24.26 -60.68)"/><path class="cls-2" d="M538.62,346h2.52v10h-2.52Z" transform="translate(-24.26 -60.68)"/><path class="cls-2" d="M544.76,353.41c.08.55.88.86,1.76.86a6,6,0,0,0,1.89-.27l.32,1.68a6.72,6.72,0,0,1-2.57.44c-2.43,0-3.8-1.33-3.8-3.52a3.51,3.51,0,0,1,3.57-3.67c2.23,0,3.18,1.64,3.18,3.53a3.88,3.88,0,0,1-.1,1Zm2-1.71a1,1,0,0,0-1-1.12,1.14,1.14,0,0,0-1.08,1.12Z" transform="translate(-24.26 -60.68)"/><path class="cls-2" d="M608.52,635.33c0-.45.06-1.34.06-2.19v-7.76h2.52v3.75h0a2.4,2.4,0,0,1,2-.85c1.64,0,2.84,1.34,2.81,3.46,0,2.49-1.56,3.74-3.16,3.74a2.18,2.18,0,0,1-2-1h0l-.1.89Zm2.58-3a1.9,1.9,0,0,0,0,.35,1,1,0,0,0,1,.82c.74,0,1.22-.56,1.22-1.65s-.38-1.64-1.22-1.64a1,1,0,0,0-1,.86,1.84,1.84,0,0,0,0,.33Z" transform="translate(-24.26 -60.68)"/><path class="cls-2" d="M623.91,633c0,1,0,1.77.06,2.36H621.8l-.12-.92h0a2.39,2.39,0,0,1-2.09,1.07c-1.54,0-2.44-1-2.44-3v-4.07h2.53v3.66c0,.88.29,1.36.88,1.36a.84.84,0,0,0,.81-.59.68.68,0,0,0,.07-.36v-4.07h2.52Z" transform="translate(-24.26 -60.68)"/><path class="cls-2" d="M628.25,626.47v2h1.43v1.85h-1.43v2c0,.82.2,1.16.8,1.16a2.85,2.85,0,0,0,.6-.06v1.92a5.15,5.15,0,0,1-1.5.19,2.45,2.45,0,0,1-1.72-.62,3,3,0,0,1-.65-2.16v-2.41h-.85v-1.85h.85V627Z" transform="translate(-24.26 -60.68)"/><path class="cls-2" d="M633.61,626.47v2H635v1.85h-1.43v2c0,.82.2,1.16.8,1.16a2.77,2.77,0,0,0,.6-.06v1.92a5.15,5.15,0,0,1-1.5.19,2.45,2.45,0,0,1-1.72-.62,3,3,0,0,1-.64-2.16v-2.41h-.86v-1.85h.86V627Z" transform="translate(-24.26 -60.68)"/><path class="cls-2" d="M643.18,631.81a3.49,3.49,0,0,1-3.73,3.67,3.43,3.43,0,0,1-3.66-3.56,3.48,3.48,0,0,1,3.8-3.64A3.39,3.39,0,0,1,643.18,631.81Zm-4.78.07c0,1,.34,1.82,1.12,1.82s1.05-.71,1.05-1.82c0-1-.31-1.82-1.06-1.82S638.4,631,638.4,631.88Z" transform="translate(-24.26 -60.68)"/><path class="cls-2" d="M644.39,630.77c0-.91,0-1.71-.06-2.34h2.18l.11.89h0a2.47,2.47,0,0,1,2.06-1c1.61,0,2.48,1.09,2.48,3v4.07h-2.52v-3.76c0-.8-.28-1.26-.88-1.26a.88.88,0,0,0-.83.6,1.57,1.57,0,0,0-.07.51v3.91h-2.52Z" transform="translate(-24.26 -60.68)"/><path class="cls-2" d="M652.83,633.21a4.52,4.52,0,0,0,1.92.52c.53,0,.74-.13.74-.38s-.15-.36-.89-.6c-1.52-.48-2-1.3-2-2.1,0-1.38,1.16-2.37,3-2.37a5.19,5.19,0,0,1,2.06.39l-.41,1.71a4,4,0,0,0-1.52-.38c-.44,0-.69.11-.69.39s.22.37,1,.64c1.36.44,1.87,1.14,1.89,2.14,0,1.32-1,2.3-3.16,2.3a5.42,5.42,0,0,1-2.35-.48Z" transform="translate(-24.26 -60.68)"/><path class="cls-2" d="M661.86,630.77c0-.91,0-1.71-.05-2.34H664l.11.89h0a2.49,2.49,0,0,1,2.06-1c1.61,0,2.48,1.09,2.48,3v4.07h-2.52v-3.76c0-.8-.28-1.26-.88-1.26a.88.88,0,0,0-.83.6,1.57,1.57,0,0,0-.07.51v3.91h-2.52Z" transform="translate(-24.26 -60.68)"/><path class="cls-2" d="M677.28,631.81a3.48,3.48,0,0,1-3.73,3.67,3.42,3.42,0,0,1-3.65-3.56,3.48,3.48,0,0,1,3.79-3.64A3.39,3.39,0,0,1,677.28,631.81Zm-4.78.07c0,1,.34,1.82,1.12,1.82s1-.71,1-1.82c0-1-.3-1.82-1.06-1.82S672.5,631,672.5,631.88Z" transform="translate(-24.26 -60.68)"/><path class="cls-2" d="M684,626.47v2h1.43v1.85H684v2c0,.82.2,1.16.8,1.16a2.88,2.88,0,0,0,.61-.06v1.92a5.26,5.26,0,0,1-1.5.19,2.48,2.48,0,0,1-1.73-.62,3,3,0,0,1-.64-2.16v-2.41h-.85v-1.85h.85V627Z" transform="translate(-24.26 -60.68)"/><path class="cls-2" d="M693.59,631.81a3.48,3.48,0,0,1-3.73,3.67,3.42,3.42,0,0,1-3.65-3.56,3.48,3.48,0,0,1,3.79-3.64A3.39,3.39,0,0,1,693.59,631.81Zm-4.78.07c0,1,.34,1.82,1.12,1.82S691,633,691,631.88c0-1-.3-1.82-1.06-1.82S688.81,631,688.81,631.88Z" transform="translate(-24.26 -60.68)"/><path class="cls-2" d="M701.71,628.43c0,.42-.07,1-.07,2.13v3.76a3.92,3.92,0,0,1-1.07,3.08,4.38,4.38,0,0,1-2.91.85,5.81,5.81,0,0,1-2.56-.52l.47-1.9a4.39,4.39,0,0,0,2,.5,1.45,1.45,0,0,0,1.6-1.55v-.31h0a2.1,2.1,0,0,1-1.72.77c-1.68,0-2.9-1.34-2.9-3.35,0-2.17,1.4-3.61,3.12-3.61a2,2,0,0,1,1.78.88h0l.08-.73Zm-2.59,2.85a3.16,3.16,0,0,0,0-.32.89.89,0,0,0-.9-.79c-.6,0-1.12.59-1.12,1.68,0,.9.42,1.56,1.12,1.56a.89.89,0,0,0,.89-.69,2.2,2.2,0,0,0,0-.52Z" transform="translate(-24.26 -60.68)"/><path class="cls-2" d="M710.05,628.43c0,.42-.07,1-.07,2.13v3.76a3.92,3.92,0,0,1-1.06,3.08,4.41,4.41,0,0,1-2.91.85,5.85,5.85,0,0,1-2.57-.52l.48-1.9a4.36,4.36,0,0,0,2,.5,1.45,1.45,0,0,0,1.59-1.55v-.31h0a2.12,2.12,0,0,1-1.73.77c-1.68,0-2.9-1.34-2.9-3.35,0-2.17,1.4-3.61,3.13-3.61a2,2,0,0,1,1.78.88h0l.09-.73Zm-2.59,2.85a1.66,1.66,0,0,0,0-.32.89.89,0,0,0-.89-.79c-.61,0-1.12.59-1.12,1.68,0,.9.42,1.56,1.12,1.56a.88.88,0,0,0,.88-.69,2.2,2.2,0,0,0,0-.52Z" transform="translate(-24.26 -60.68)"/><path class="cls-2" d="M711.55,625.38h2.52v10h-2.52Z" transform="translate(-24.26 -60.68)"/><path class="cls-2" d="M717.68,632.76c.08.55.88.86,1.76.86a6.07,6.07,0,0,0,1.9-.27l.32,1.68a6.78,6.78,0,0,1-2.58.44c-2.42,0-3.8-1.34-3.8-3.52a3.51,3.51,0,0,1,3.58-3.67c2.22,0,3.18,1.64,3.18,3.53a4.46,4.46,0,0,1-.1,1Zm2-1.71a1,1,0,0,0-1-1.12,1.15,1.15,0,0,0-1.08,1.12Z" transform="translate(-24.26 -60.68)"/><path class="cls-2" d="M500.77,635.33v-5.05h-.88v-1.85h.88v-.23a3.11,3.11,0,0,1,.89-2.26,3,3,0,0,1,2-.71,4.75,4.75,0,0,1,1.16.12l-.06,1.93a2.38,2.38,0,0,0-.64-.08.82.82,0,0,0-.85.9v.33h1.26v1.85H503.3v5.05Z" transform="translate(-24.26 -60.68)"/><path class="cls-2" d="M505.56,630.76c0-1.09,0-1.75-.06-2.33h2.16l.08,1.25h.06a2,2,0,0,1,1.83-1.4,2,2,0,0,1,.51,0v2.37a2.93,2.93,0,0,0-.65-.07c-.74,0-1.24.31-1.37.87a1.8,1.8,0,0,0,0,.43v3.41h-2.52Z" transform="translate(-24.26 -60.68)"/><path class="cls-2" d="M518.12,631.81a3.49,3.49,0,0,1-3.73,3.67,3.42,3.42,0,0,1-3.65-3.56,3.48,3.48,0,0,1,3.79-3.64A3.39,3.39,0,0,1,518.12,631.81Zm-4.78.07c0,1,.34,1.82,1.12,1.82s1-.71,1-1.82c0-1-.31-1.82-1.06-1.82S513.34,631,513.34,631.88Z" transform="translate(-24.26 -60.68)"/><path class="cls-2" d="M519.33,630.77c0-.91,0-1.71-.05-2.34h2.17l.11.89h.06a2.45,2.45,0,0,1,2-1c1.62,0,2.48,1.09,2.48,3v4.07h-2.52v-3.76c0-.8-.28-1.26-.88-1.26a.89.89,0,0,0-.83.6,1.57,1.57,0,0,0-.07.51v3.91h-2.52Z" transform="translate(-24.26 -60.68)"/><path class="cls-2" d="M530.38,626.47v2h1.43v1.85h-1.43v2c0,.82.2,1.16.8,1.16a2.85,2.85,0,0,0,.6-.06v1.92a5.15,5.15,0,0,1-1.5.19,2.45,2.45,0,0,1-1.72-.62,3,3,0,0,1-.65-2.16v-2.41h-.85v-1.85h.85V627Z" transform="translate(-24.26 -60.68)"/><path class="cls-2" d="M345.09,635.33c0-.45.06-1.34.06-2.19v-7.76h2.52v3.75h0a2.39,2.39,0,0,1,2-.85c1.63,0,2.84,1.34,2.81,3.46,0,2.49-1.57,3.74-3.16,3.74a2.21,2.21,0,0,1-2-1h0l-.1.89Zm2.58-3a1.9,1.9,0,0,0,0,.35,1,1,0,0,0,1,.82c.74,0,1.22-.56,1.22-1.65s-.38-1.64-1.22-1.64a1,1,0,0,0-1,.86,1.84,1.84,0,0,0,0,.33Z" transform="translate(-24.26 -60.68)"/><path class="cls-2" d="M360.77,631.81a3.48,3.48,0,0,1-3.72,3.67,3.43,3.43,0,0,1-3.66-3.56,3.48,3.48,0,0,1,3.8-3.64A3.38,3.38,0,0,1,360.77,631.81Zm-4.77.07c0,1,.33,1.82,1.12,1.82s1.05-.71,1.05-1.82c0-1-.31-1.82-1.07-1.82S356,631,356,631.88Z" transform="translate(-24.26 -60.68)"/><path class="cls-2" d="M364.75,626.47v2h1.43v1.85h-1.43v2c0,.82.19,1.16.8,1.16a2.85,2.85,0,0,0,.6-.06v1.92a5.26,5.26,0,0,1-1.5.19,2.45,2.45,0,0,1-1.72-.62,3,3,0,0,1-.65-2.16v-2.41h-.85v-1.85h.85V627Z" transform="translate(-24.26 -60.68)"/><path class="cls-2" d="M370.11,626.47v2h1.43v1.85h-1.43v2c0,.82.2,1.16.8,1.16a2.85,2.85,0,0,0,.6-.06v1.92a5.15,5.15,0,0,1-1.5.19,2.45,2.45,0,0,1-1.72-.62,3,3,0,0,1-.65-2.16v-2.41h-.85v-1.85h.85V627Z" transform="translate(-24.26 -60.68)"/><path class="cls-2" d="M379.67,631.81a3.48,3.48,0,0,1-3.72,3.67,3.43,3.43,0,0,1-3.66-3.56,3.48,3.48,0,0,1,3.8-3.64A3.38,3.38,0,0,1,379.67,631.81Zm-4.77.07c0,1,.33,1.82,1.12,1.82s1.05-.71,1.05-1.82c0-1-.31-1.82-1.07-1.82S374.9,631,374.9,631.88Z" transform="translate(-24.26 -60.68)"/><path class="cls-2" d="M380.89,630.77c0-.91,0-1.71-.06-2.34H383l.09.86h.06a2.43,2.43,0,0,1,2-1,1.91,1.91,0,0,1,1.86,1.09h0a2.9,2.9,0,0,1,1-.81,2.67,2.67,0,0,1,1.22-.28c1.49,0,2.34,1.08,2.34,3v4.07h-2.45v-3.69c0-.85-.25-1.34-.81-1.34a.79.79,0,0,0-.77.58,1.53,1.53,0,0,0-.07.51v3.94H385v-3.76c0-.77-.24-1.27-.8-1.27a.82.82,0,0,0-.77.57,1.26,1.26,0,0,0-.07.51v4h-2.45Z" transform="translate(-24.26 -60.68)"/><path class="cls-2" d="M122.33,626.47v2h1.43v1.85h-1.43v2c0,.82.19,1.16.8,1.16a2.85,2.85,0,0,0,.6-.06v1.92a5.26,5.26,0,0,1-1.5.19,2.45,2.45,0,0,1-1.72-.62,3,3,0,0,1-.65-2.16v-2.41H119v-1.85h.85V627Z" transform="translate(-24.26 -60.68)"/><path class="cls-2" d="M131.89,631.81a3.48,3.48,0,0,1-3.72,3.67,3.43,3.43,0,0,1-3.66-3.56,3.48,3.48,0,0,1,3.8-3.64A3.38,3.38,0,0,1,131.89,631.81Zm-4.78.07c0,1,.34,1.82,1.13,1.82s1-.71,1-1.82c0-1-.31-1.82-1.07-1.82S127.11,631,127.11,631.88Z" transform="translate(-24.26 -60.68)"/><path class="cls-2" d="M133.11,630.77c0-.91,0-1.69-.06-2.34h2.17l.11.87h0a2.7,2.7,0,0,1,2.23-1c1.44,0,2.84,1.27,2.84,3.52,0,2.52-1.64,3.68-3.14,3.68a2,2,0,0,1-1.63-.66h0v3.28h-2.52Zm2.52,1.54a1.76,1.76,0,0,0,0,.42,1,1,0,0,0,1,.83c.76,0,1.22-.66,1.22-1.65s-.39-1.67-1.19-1.67a1.07,1.07,0,0,0-1,.9,1.12,1.12,0,0,0,0,.32Z" transform="translate(-24.26 -60.68)"/><path class="cls-2" d="M140.33,349h2.52v9.94h-2.52Z" transform="translate(-24.26 -60.68)"/><path class="cls-2" d="M146.46,356.34c.08.54.88.85,1.76.85a6.26,6.26,0,0,0,1.89-.26l.33,1.68a7,7,0,0,1-2.58.43c-2.42,0-3.8-1.33-3.8-3.51a3.5,3.5,0,0,1,3.57-3.67c2.23,0,3.18,1.63,3.18,3.52a4.66,4.66,0,0,1-.09,1Zm2-1.71a1,1,0,0,0-1-1.12,1.14,1.14,0,0,0-1.08,1.12Z" transform="translate(-24.26 -60.68)"/><path class="cls-2" d="M152.25,358.9v-5h-.88V352h.88v-.24a3.09,3.09,0,0,1,.9-2.25,2.93,2.93,0,0,1,2-.72,4.22,4.22,0,0,1,1.16.13l-.05,1.93a2.06,2.06,0,0,0-.65-.08.82.82,0,0,0-.85.89V352H156v1.85h-1.23v5Z" transform="translate(-24.26 -60.68)"/><path class="cls-2" d="M160,350.05v2h1.43v1.85H160v2c0,.83.2,1.17.8,1.17a2.77,2.77,0,0,0,.6-.06v1.92a5.19,5.19,0,0,1-1.49.18,2.47,2.47,0,0,1-1.73-.61,3,3,0,0,1-.64-2.16v-2.41h-.86V352h.86v-1.4Z" transform="translate(-24.26 -60.68)"/><path class="cls-2" d="M616.65,1123.78c0-1.08-.06-2.34,0-3.81h0c-.29,1.25-.68,2.66-1,3.7l-.94,3.29h-2l-.79-3.28c-.24-1-.54-2.42-.75-3.71h0c-.06,1.33-.12,2.73-.16,3.81l-.14,3.38h-2.32l.57-9.44h3.4l.63,2.53c.26,1,.54,2.31.73,3.46h.06c.27-1.15.57-2.48.85-3.47l.7-2.52h3.34l.47,9.44h-2.46Z" transform="translate(-24.26 -60.68)"/><path class="cls-2" d="M622.73,1124.59c.09.55.89.86,1.77.86a6,6,0,0,0,1.89-.27l.32,1.68a6.74,6.74,0,0,1-2.58.44c-2.42,0-3.79-1.33-3.79-3.52a3.5,3.5,0,0,1,3.57-3.67c2.23,0,3.18,1.64,3.18,3.53a4.37,4.37,0,0,1-.1.95Zm2-1.71a1,1,0,0,0-1-1.12,1.14,1.14,0,0,0-1.07,1.12Z" transform="translate(-24.26 -60.68)"/><path class="cls-2" d="M630.28,1124.59c.08.55.88.86,1.76.86a6,6,0,0,0,1.89-.27l.33,1.68a6.81,6.81,0,0,1-2.58.44c-2.42,0-3.8-1.33-3.8-3.52a3.51,3.51,0,0,1,3.58-3.67c2.22,0,3.18,1.64,3.18,3.53a4.37,4.37,0,0,1-.1.95Zm2-1.71a1,1,0,0,0-1-1.12,1.15,1.15,0,0,0-1.08,1.12Z" transform="translate(-24.26 -60.68)"/><path class="cls-2" d="M638.54,1118.3v2H640v1.85h-1.43v2c0,.83.2,1.16.8,1.16a4,4,0,0,0,.6,0v1.91a5.15,5.15,0,0,1-1.5.19,2.45,2.45,0,0,1-1.72-.62,3,3,0,0,1-.65-2.16v-2.41h-.85v-1.85h.85v-1.4Z" transform="translate(-24.26 -60.68)"/><path class="cls-2" d="M643.69,1118.36a1.29,1.29,0,0,1-2.58,0,1.29,1.29,0,0,1,2.58,0Zm-2.55,8.8v-6.9h2.52v6.9Z" transform="translate(-24.26 -60.68)"/><path class="cls-2" d="M645.23,1122.6c0-.91,0-1.7-.06-2.34h2.18l.11.89h0a2.46,2.46,0,0,1,2.06-1c1.61,0,2.48,1.09,2.48,3v4.07h-2.52v-3.76c0-.8-.28-1.26-.88-1.26a.88.88,0,0,0-.83.6,1.34,1.34,0,0,0-.07.51v3.91h-2.52Z" transform="translate(-24.26 -60.68)"/><path class="cls-2" d="M660.47,1120.26a18.94,18.94,0,0,0-.08,2.13v3.76a3.92,3.92,0,0,1-1.06,3.08,4.41,4.41,0,0,1-2.91.85,6,6,0,0,1-2.57-.51l.48-1.91a4.35,4.35,0,0,0,2,.51,1.45,1.45,0,0,0,1.6-1.56v-.31h0a2.12,2.12,0,0,1-1.72.77c-1.69,0-2.91-1.34-2.91-3.35,0-2.17,1.41-3.61,3.13-3.61a2,2,0,0,1,1.78.88h0l.08-.73Zm-2.6,2.85c0-.1,0-.23,0-.32a.92.92,0,0,0-.9-.79c-.6,0-1.12.59-1.12,1.68,0,.9.42,1.56,1.12,1.56a.88.88,0,0,0,.88-.69,2.2,2.2,0,0,0,0-.52Z" transform="translate(-24.26 -60.68)"/><path class="cls-2" d="M669.12,1126.92a6.45,6.45,0,0,1-2.38.38c-3.53,0-5.09-2.2-5.09-4.71,0-3.33,2.44-5,5.25-5a5.66,5.66,0,0,1,2.37.42l-.49,2a4.54,4.54,0,0,0-1.75-.34,2.79,2.79,0,0,0,0,5.58,5.33,5.33,0,0,0,1.7-.28Z" transform="translate(-24.26 -60.68)"/><path class="cls-2" d="M677.11,1123.64a3.48,3.48,0,0,1-3.72,3.67,3.43,3.43,0,0,1-3.66-3.56,3.48,3.48,0,0,1,3.8-3.64A3.38,3.38,0,0,1,677.11,1123.64Zm-4.77.07c0,1,.33,1.82,1.12,1.82s1-.71,1-1.82c0-1-.31-1.82-1.07-1.82S672.34,1122.8,672.34,1123.71Z" transform="translate(-24.26 -60.68)"/><path class="cls-2" d="M678.33,1122.6c0-.91,0-1.7-.06-2.34h2.17l.11.89h.06a2.46,2.46,0,0,1,2.06-1c1.61,0,2.48,1.09,2.48,3v4.07h-2.52v-3.76c0-.8-.28-1.26-.89-1.26a.87.87,0,0,0-.82.6,1.34,1.34,0,0,0-.07.51v3.91h-2.52Z" transform="translate(-24.26 -60.68)"/><path class="cls-2" d="M689.37,1118.3v2h1.43v1.85h-1.43v2c0,.83.2,1.16.8,1.16a3.84,3.84,0,0,0,.6,0v1.91a5.15,5.15,0,0,1-1.5.19,2.47,2.47,0,0,1-1.72-.62,3,3,0,0,1-.64-2.16v-2.41h-.86v-1.85h.86v-1.4Z" transform="translate(-24.26 -60.68)"/><path class="cls-2" d="M692,1122.59c0-1.09,0-1.75-.05-2.33h2.16l.08,1.25h.06a2,2,0,0,1,1.83-1.4,2,2,0,0,1,.51,0v2.37a2.93,2.93,0,0,0-.65-.07c-.74,0-1.25.31-1.37.87a1.85,1.85,0,0,0,0,.43v3.41H692Z" transform="translate(-24.26 -60.68)"/><path class="cls-2" d="M704.54,1123.64a3.49,3.49,0,0,1-3.73,3.67,3.42,3.42,0,0,1-3.65-3.56,3.48,3.48,0,0,1,3.79-3.64A3.39,3.39,0,0,1,704.54,1123.64Zm-4.78.07c0,1,.34,1.82,1.12,1.82s1-.71,1-1.82c0-1-.31-1.82-1.06-1.82S699.76,1122.8,699.76,1123.71Z" transform="translate(-24.26 -60.68)"/><path class="cls-2" d="M705.75,1117.21h2.52v10h-2.52Z" transform="translate(-24.26 -60.68)"/><path class="cls-2" d="M709.84,1117.21h2.52v10h-2.52Z" transform="translate(-24.26 -60.68)"/><path class="cls-2" d="M716,1124.59c.09.55.88.86,1.77.86a6,6,0,0,0,1.89-.27l.32,1.68a6.78,6.78,0,0,1-2.58.44c-2.42,0-3.79-1.33-3.79-3.52a3.5,3.5,0,0,1,3.57-3.67c2.23,0,3.18,1.64,3.18,3.53a4.37,4.37,0,0,1-.1.95Zm2-1.71a1,1,0,0,0-1-1.12,1.16,1.16,0,0,0-1.08,1.12Z" transform="translate(-24.26 -60.68)"/><path class="cls-2" d="M721.47,1122.59c0-1.09,0-1.75-.05-2.33h2.15l.09,1.25h.05a2,2,0,0,1,1.84-1.4,2,2,0,0,1,.5,0v2.37a2.77,2.77,0,0,0-.64-.07c-.74,0-1.25.31-1.37.87a1.81,1.81,0,0,0,0,.43v3.41h-2.52Z" transform="translate(-24.26 -60.68)"/><path class="cls-2" d="M731.74,1127.16l-3-9.44h2.77l1,3.71a32.76,32.76,0,0,1,.78,3.3h0c.24-1.16.5-2.25.78-3.26l1-3.75h2.69l-3.1,9.44Z" transform="translate(-24.26 -60.68)"/><path class="cls-2" d="M745.56,1122.59c0,2.68-1.14,4.72-3.59,4.72-2.6,0-3.57-2.31-3.57-4.69s1-4.72,3.6-4.72S745.56,1120.26,745.56,1122.59Zm-4.64,0c0,2,.41,2.82,1.08,2.82s1-.85,1-2.82-.38-2.8-1-2.8S740.92,1120.63,740.92,1122.6Z" transform="translate(-24.26 -60.68)"/><path class="cls-2" d="M746.67,1125.84a1.45,1.45,0,1,1,1.45,1.47A1.4,1.4,0,0,1,746.67,1125.84Z" transform="translate(-24.26 -60.68)"/><path class="cls-2" d="M757.54,1122.59c0,2.68-1.13,4.72-3.59,4.72s-3.57-2.31-3.57-4.69,1-4.72,3.6-4.72S757.54,1120.26,757.54,1122.59Zm-4.64,0c0,2,.41,2.82,1.08,2.82s1-.85,1-2.82-.38-2.8-1-2.8S752.9,1120.63,752.9,1122.6Z" transform="translate(-24.26 -60.68)"/><path class="cls-2" d="M758.66,1125.84a1.44,1.44,0,1,1,1.44,1.47A1.39,1.39,0,0,1,758.66,1125.84Z" transform="translate(-24.26 -60.68)"/><path class="cls-2" d="M762.93,1124.78a5.39,5.39,0,0,0,2.15.54c.9,0,1.49-.32,1.49-1s-.77-1.09-1.61-1.09H764v-1.79h.9c.63,0,1.43-.2,1.43-.83,0-.46-.44-.77-1.24-.77a4.51,4.51,0,0,0-1.93.52l-.48-1.81a6.26,6.26,0,0,1,3-.68c2,0,3.19,1,3.19,2.31a2.14,2.14,0,0,1-1.65,2.1v0a2.2,2.2,0,0,1,2,2.17c0,1.67-1.53,2.8-3.9,2.8a5.72,5.72,0,0,1-2.84-.64Z" transform="translate(-24.26 -60.68)"/></g><g id="Layer_16" data-name="Layer 16"><rect class="cls-3" x="0.5" y="541.99" width="765.17" height="541.49"/><rect class="cls-3" x="0.5" y="0.5" width="765.17" height="541.49"/></g><g id="Layer_11" data-name="Layer 11"><path class="cls-2" d="M139.65,258.7H121.89a.51.51,0,0,0-.39.19l-5.22,5.26a.52.52,0,0,0-.16.37V277a.53.53,0,0,0,.52.53h17.77a.57.57,0,0,0,.39-.16L140,272.1a.51.51,0,0,0,.15-.37v-12.5A.52.52,0,0,0,139.65,258.7Zm-1.19,13.88H121.29a.3.3,0,0,1-.29-.29V260.44h17.15a.28.28,0,0,1,.31.26Z" transform="translate(-24.26 -60.68)"/><path class="cls-2" d="M191.11,274.2a1.58,1.58,0,1,0,1.58-1.59A1.58,1.58,0,0,0,191.11,274.2Z" transform="translate(-24.26 -60.68)"/><path class="cls-2" d="M160.2,273.89a1.58,1.58,0,1,0,1.58-1.6A1.59,1.59,0,0,0,160.2,273.89Z" transform="translate(-24.26 -60.68)"/><path class="cls-2" d="M138.12,278.11v2.33h2.08v5.34a3.32,3.32,0,0,0,3.64,3.55,4.54,4.54,0,0,0,1.75-.28v-2.57a4.32,4.32,0,0,1-1,.1c-.89,0-1.35-.33-1.35-1.33v-4.81h2.31v-2.76h-2.31v-3.43H142Z" transform="translate(-24.26 -60.68)"/><path class="cls-2" d="M163.31,289.17V277.68H160.2v11.49Z" transform="translate(-24.26 -60.68)"/><path class="cls-2" d="M152.52,280.18a2.16,2.16,0,0,0-2.15,2.24v6.75h-3.1v-16.9h3.1v6.37a4.1,4.1,0,0,1,3.11-1.26c2.92,0,4.27,2,4.27,4.55v7.24h-3.1v-6.7A2,2,0,0,0,152.52,280.18Z" transform="translate(-24.26 -60.68)"/><path class="cls-2" d="M171.18,280.18a2.17,2.17,0,0,0-2.15,2.38v6.61h-3.1V277.68h3v1.43a3.82,3.82,0,0,1,3.31-1.73c2.85,0,4.16,2,4.16,4.55v7.24H173.3v-6.7A2,2,0,0,0,171.18,280.18Z" transform="translate(-24.26 -60.68)"/><path class="cls-2" d="M190,277.68h-4.06L182,282v-9.69h-3.1v16.9H182v-3l1.29-1.35,3,4.39h3.81l-4.69-6.65Z" transform="translate(-24.26 -60.68)"/><path class="cls-2" d="M194.3,277.68v11.49h-3.1V277.68Z" transform="translate(-24.26 -60.68)"/><path class="cls-2" d="M200,282.56a2.16,2.16,0,0,1,2.15-2.38,2,2,0,0,1,2.12,2.29v6.7h3.11v-7.24c0-2.52-1.31-4.55-4.16-4.55a3.81,3.81,0,0,0-3.31,1.73v-1.43h-3v11.49H200Z" transform="translate(-24.26 -60.68)"/><path class="cls-4" d="M225.78,289.17v-1.4a3.89,3.89,0,0,0,3.41,1.68c3.26,0,5.41-2.59,5.41-6.07s-1.93-6-5.3-6a4.09,4.09,0,0,0-3.47,1.56v-6.67h-3.06v16.9Zm5.72-5.77c0,2.1-1.26,3.27-2.85,3.27s-2.87-1.19-2.87-3.27,1.31-3.24,2.87-3.24S231.5,281.3,231.5,283.4Z" transform="translate(-24.26 -60.68)"/><path class="cls-4" d="M235.5,283.43a6,6,0,1,1,6,6.09A5.89,5.89,0,0,1,235.5,283.43Zm3.1,0a2.94,2.94,0,1,0,2.92-3.27A3,3,0,0,0,238.6,283.43Z" transform="translate(-24.26 -60.68)"/><path class="cls-2" d="M247.48,289.17H251c.28-.44,1.12-1.68,1.74-2.6h0l.62-.92,2.4,3.53h3.64l-4.15-5.86,4-5.63h-3.52l-2.26,3.41c-.2-.31-.68-1-1.15-1.7h0c-.47-.7-.94-1.39-1.14-1.71h-3.69l4.09,5.72Z" transform="translate(-24.26 -60.68)"/><path class="cls-4" d="M215.08,277.65h6.31v2.53h-2a5.41,5.41,0,0,1,.77,2.84,5.3,5.3,0,0,1-5.52,5.36,6,6,0,0,1-1.92-.31c-.33.4-.68.88-.62,1.05.11.39.62.75,1.73.78l2.41,0c2.55.05,4.29,1.22,4.51,3.36.31,3.29-2.1,5.09-5.7,5.19-3.37.07-5.29-1.49-5.58-3.46a3.68,3.68,0,0,1,1.44-3.53,2.29,2.29,0,0,1-1.26-2.05,4.11,4.11,0,0,1,1-2.61,5.4,5.4,0,0,1,4-9.17l.47,0ZM212.25,283a2.31,2.31,0,0,0,2.36,2.56,2.57,2.57,0,0,0,0-5.12A2.3,2.3,0,0,0,212.25,283Zm5.44,10.82c.09,1.24-.9,1.73-2.9,1.73-1.61,0-2.47-.32-2.47-1.53,0-.66.06-1.13.75-1.32h2C216.58,292.72,217.64,292.72,217.69,293.84Z" transform="translate(-24.26 -60.68)"/><path class="cls-2" d="M615.76,799.76V772.25a.77.77,0,0,0-.28-.6l-8.16-8.08a.81.81,0,0,0-.57-.25H587.43a.82.82,0,0,0-.81.81v27.5a.82.82,0,0,0,.24.61l8.16,8.08a.8.8,0,0,0,.57.24H615A.81.81,0,0,0,615.76,799.76Zm-21.48-1.85V771.33a.46.46,0,0,1,.45-.45h18.34v26.55a.43.43,0,0,1-.41.48Z" transform="translate(-24.26 -60.68)"/><path class="cls-2" d="M591.76,879.42a2.45,2.45,0,1,0,2.47,2.44A2.44,2.44,0,0,0,591.76,879.42Z" transform="translate(-24.26 -60.68)"/><path class="cls-2" d="M592.25,831.57a2.44,2.44,0,1,0,2.47,2.44A2.44,2.44,0,0,0,592.25,831.57Z" transform="translate(-24.26 -60.68)"/><path class="cls-2" d="M585.71,797.38h-3.6v3.22h-8.27c-3.44,0-5.5,2.17-5.5,5.63a7.19,7.19,0,0,0,.44,2.72h4a7.33,7.33,0,0,1-.14-1.49c0-1.37.5-2.09,2.06-2.09h7.44V809h4.26v-3.58h5.32v-2Z" transform="translate(-24.26 -60.68)"/><path class="cls-2" d="M568.6,836.38h17.77v-4.81H568.6Z" transform="translate(-24.26 -60.68)"/><path class="cls-2" d="M582.51,819.68a3.32,3.32,0,0,0-3.47-3.32H568.6v-4.81h26.16v4.81h-9.87a6.3,6.3,0,0,1,2,4.8c0,4.52-3.14,6.62-7,6.62H568.6V823H579C581,823,582.51,822,582.51,819.68Z" transform="translate(-24.26 -60.68)"/><path class="cls-2" d="M582.51,848.57c0-2.1-1.63-3.33-3.69-3.33H568.6v-4.8h17.77v4.66h-2.2a5.91,5.91,0,0,1,2.67,5.13c0,4.41-3.14,6.43-7,6.43H568.6v-4.8H579C581,851.86,582.51,850.88,582.51,848.57Z" transform="translate(-24.26 -60.68)"/><path class="cls-2" d="M586.37,877.69v-6.28l-6.61-6.15h15v-4.8H568.6v4.8h4.69l2.1,2L568.6,872v5.89l10.29-7.26Z" transform="translate(-24.26 -60.68)"/><path class="cls-2" d="M586.37,884.37H568.6v-4.81h17.77Z" transform="translate(-24.26 -60.68)"/><path class="cls-2" d="M578.82,893.23c2.06,0,3.69,1.23,3.69,3.33,0,2.31-1.56,3.29-3.54,3.29H568.6v4.8h11.2c3.9,0,7-2,7-6.43a5.9,5.9,0,0,0-2.67-5.13h2.2v-4.66H568.6v4.8Z" transform="translate(-24.26 -60.68)"/><path class="cls-4" d="M568.6,933.1h2.16a6,6,0,0,0-2.6,5.27c0,5.06,4,8.39,9.4,8.39s9.28-3,9.28-8.21a6.32,6.32,0,0,0-2.42-5.38h10.34v-4.73H568.6Zm8.92,8.85c-3.25,0-5.06-2-5.06-4.41s1.84-4.44,5.06-4.44,5,2,5,4.44S580.77,942,577.52,942Z" transform="translate(-24.26 -60.68)"/><path class="cls-4" d="M577.49,948.14a9.33,9.33,0,1,1-9.44,9.33A9.11,9.11,0,0,1,577.49,948.14Zm0,4.81c-3.33,0-5.06,2.17-5.06,4.52s1.69,4.51,5.06,4.51,5-2.17,5-4.51S580.85,953,577.49,953Z" transform="translate(-24.26 -60.68)"/><path class="cls-2" d="M568.6,966.7v5.42c.68.43,2.59,1.72,4,2.68h0c.61.4,1.12.75,1.41.95l-5.45,3.72v5.64l9.07-6.44,8.7,6.22v-5.46L581.1,976c.49-.31,1.56-1,2.64-1.77h0c1.07-.74,2.15-1.47,2.63-1.77V966.7L577.52,973Z" transform="translate(-24.26 -60.68)"/><path class="cls-4" d="M586.42,916.54v9.76h-3.91v-3.14a8.35,8.35,0,0,1-4.39,1.19,8.2,8.2,0,0,1-8.3-8.55,9.29,9.29,0,0,1,.47-3c-.61-.51-1.37-1-1.62-1-.6.17-1.16,1-1.2,2.67l0,3.73c-.08,3.94-1.89,6.65-5.2,7-5.09.48-7.88-3.25-8-8.84-.11-5.2,2.3-8.18,5.36-8.63,1.66-.24,4.3.31,5.47,2.23a3.52,3.52,0,0,1,3.16-2,6.42,6.42,0,0,1,4.05,1.57,8.35,8.35,0,0,1,14.19,6.16c0,.25,0,.5,0,.74Zm-8.3-4.39c-2.69,0-4,1.7-4,3.65s1,3.66,4,3.66,4-1.7,4-3.66S580.8,912.15,578.12,912.15Zm-16.76,8.42c-1.92.14-2.68-1.4-2.68-4.48,0-2.5.49-3.83,2.38-3.83,1,0,1.73.1,2,1.16v3.05C563.1,918.86,563.1,920.5,561.36,920.57Z" transform="translate(-24.26 -60.68)"/></g><g id="Layer_15" data-name="Layer 15"><path class="cls-1" d="M312.54,374.54v67H321v17h8.5V455h7.09v3.54h9.92v8.51h-9.92v3.54h-7.09v-3.54H321v17h-8.5V594.18H766.61V484.07h-8.94v-17H749.6v3.54h-7.09v-3.54h-9.92v-8.51h9.92V455h7.09v3.54h8.07v-17h8.94v-67ZM423.69,489.26a40,40,0,1,1,40-40A40,40,0,0,1,423.69,489.26Zm59.21,64.38a11.34,11.34,0,1,1,11.34-11.34A11.34,11.34,0,0,1,482.9,553.64Zm56.39-2.83a8.51,8.51,0,1,1,8.5-8.51A8.5,8.5,0,0,1,539.29,550.81Zm-2.41-61.55a40,40,0,1,1,40-40A40,40,0,0,1,536.88,489.26Zm58.8,64.38A11.34,11.34,0,1,1,607,542.3,11.34,11.34,0,0,1,595.68,553.64Zm54.38-64.38a40,40,0,1,1,40-40A40,40,0,0,1,650.06,489.26Z" transform="translate(-24.26 -60.68)"/><path class="cls-1" d="M693,646.26v8.51H676v8.5h3.54v7.09H676v9.92h-8.51v-9.92H664v-7.09h3.54v-8.5h-17v-8.51H540.42v454.07h110.1v-8.93h17v-8.5H664v-7.09h3.54v-9.92H676v9.92h3.54v7.09H676v8.5h17v8.93h67V646.26Zm-12.62,377.57a40,40,0,1,1,40-40A40,40,0,0,1,680.42,1023.83Zm0-113.19a40,40,0,1,1,40-40A40,40,0,0,1,680.42,910.64Zm0-113.18a40,40,0,1,1,40-40A40,40,0,0,1,680.42,797.46Z" transform="translate(-24.26 -60.68)"/><circle class="cls-5" cx="185.77" cy="525.13" r="4.25"/><circle class="cls-5" cx="74.74" cy="444.66" r="4.25"/><circle class="cls-5" cx="74.3" cy="114.05" r="4.25"/><circle class="cls-5" cx="185.77" cy="302.52" r="4.25"/><circle class="cls-5" cx="180.42" cy="672.84" r="4.25"/><circle class="cls-5" cx="180.42" cy="952.4" r="4.25"/><circle class="cls-5" cx="185.77" cy="256.52" r="4.25"/><circle class="cls-5" cx="185.77" cy="33.91" r="4.25"/><polygon class="cls-1" points="186.61 694.1 186.61 651.59 178.1 651.59 178.1 585.59 121.75 585.59 121.75 594.52 104.74 594.52 104.74 602.6 108.29 602.6 108.29 609.68 104.74 609.68 104.74 619.6 96.24 619.6 96.24 609.68 92.7 609.68 92.7 602.6 96.24 602.6 96.24 594.52 79.23 594.52 79.23 585.59 29.75 585.59 29.75 1039.66 79.23 1039.66 79.23 1031.15 96.24 1031.15 96.24 1022.65 92.7 1022.65 92.7 1015.56 96.24 1015.56 96.24 1005.64 104.74 1005.64 104.74 1015.56 108.29 1015.56 108.29 1022.65 104.74 1022.65 104.74 1031.15 121.75 1031.15 121.75 1039.66 178.1 1039.66 178.1 973.66 186.61 973.66 186.61 931.14 178.1 931.14 178.1 694.1 186.61 694.1"/><polygon class="cls-1" points="682.38 35.91 682.38 44.42 665.37 44.42 665.37 52.92 668.92 52.92 668.92 60.01 665.37 60.01 665.37 69.93 656.87 69.93 656.87 60.01 653.33 60.01 653.33 52.92 656.87 52.92 656.87 44.42 639.86 44.42 639.86 35.91 402.83 35.91 402.83 44.42 385.82 44.42 385.82 52.92 389.36 52.92 389.36 60.01 385.82 60.01 385.82 69.93 377.31 69.93 377.31 60.01 373.77 60.01 373.77 52.92 377.31 52.92 377.31 44.42 360.31 44.42 360.31 35.91 294.41 36.19 294.41 271.46 748.48 271.46 748.48 36.19 682.38 35.91"/><circle class="cls-5" cx="381.57" cy="265.11" r="4.25"/><circle class="cls-5" cx="661.12" cy="265" r="4.25"/><circle class="cls-5" cx="481.51" cy="952.4" r="4.25"/><circle class="cls-5" cx="481.51" cy="672.84" r="4.25"/><path class="cls-1" d="M232.66,991.82" transform="translate(-24.26 -60.68)"/><path class="cls-1" d="M374.31,975.65" transform="translate(-24.26 -60.68)"/><path class="cls-1" d="M376.47,945.64" transform="translate(-24.26 -60.68)"/><polygon class="cls-1" points="455.28 973.66 455.28 973.66 455.28 956.65 437.85 956.65 437.85 960.19 430.76 960.19 430.76 956.65 420.84 956.65 420.84 948.15 430.76 948.15 430.76 944.6 437.85 944.6 437.85 948.15 455.28 948.15 455.28 931.14 455.28 931.14 455.28 931.14 455.28 891.57 455.28 728.09 455.28 694.1 455.28 694.1 455.28 677.1 437.85 677.1 437.85 680.64 430.76 680.64 430.76 677.1 420.84 677.1 420.84 668.59 430.76 668.59 430.76 665.05 437.85 665.05 437.85 668.59 455.28 668.59 455.28 651.59 455.28 651.58 455.28 612.01 455.28 585.59 307.39 585.59 307.39 594.52 290.38 594.52 290.38 603.02 293.93 603.02 293.93 610.11 290.38 610.11 290.38 620.03 281.88 620.03 281.88 610.11 278.34 610.11 278.34 603.02 281.88 603.02 281.88 594.52 264.87 594.52 264.87 585.59 208.4 585.59 208.4 617.6 208.4 651.59 208.4 668.59 225.84 668.59 225.84 665.05 232.93 665.05 232.93 668.59 242.85 668.59 242.85 677.1 232.93 677.1 232.93 680.64 225.84 680.64 225.84 677.1 208.4 677.1 208.4 694.1 208.4 694.1 208.4 733.68 208.4 897.15 208.4 931.14 208.4 948.15 225.84 948.15 225.84 944.6 232.93 944.6 232.93 948.15 242.85 948.15 242.85 956.65 232.93 956.65 232.93 960.2 225.84 960.2 225.84 956.65 208.4 956.65 208.4 973.66 208.4 1013.23 208.4 1039.66 264.87 1039.66 264.87 1031.15 281.88 1031.15 281.88 1022.65 278.34 1022.65 278.34 1015.56 281.88 1015.56 281.88 1005.64 290.38 1005.64 290.38 1015.56 293.93 1015.56 293.93 1022.65 290.38 1022.65 290.38 1031.15 307.39 1031.15 307.39 1039.66 455.28 1039.66 455.28 1039.66 455.28 1007.65 455.28 973.66"/></g></svg>