<svg xmlns="http://www.w3.org/2000/svg" width="270.29mm" height="400.53mm" viewBox="0 0 766.17 1135.35"><defs><style>.cls-1,.cls-3{fill:none;stroke:#000;}.cls-1{stroke-linecap:round;stroke-linejoin:round;stroke-width:0.71px;}.cls-2,.cls-4{fill:red;}.cls-3{stroke-miterlimit:10;}.cls-4{fill-rule:evenodd;}</style></defs><g id="Layer_10" data-name="Layer 10"><polygon class="cls-1" points="307.39 1091.03 455.28 1091.03 455.28 1025.03 463.79 1025.03 463.79 982.51 455.28 982.51 455.28 745.47 463.79 745.47 463.79 702.95 455.28 702.95 455.28 636.96 307.39 636.96 307.39 645.89 264.87 645.89 264.87 636.96 208.4 636.96 208.4 702.95 199.9 702.95 199.9 745.47 208.4 745.47 208.4 982.51 199.9 982.51 199.9 1025.03 208.4 1025.03 208.4 1091.03 264.87 1091.03 264.87 1082.52 307.39 1082.52 307.39 1091.03"/><polygon class="cls-1" points="186.61 745.47 186.61 702.95 178.1 702.95 178.1 636.96 121.75 636.96 121.75 645.89 79.23 645.89 79.23 636.96 29.75 636.96 29.75 1091.03 79.23 1091.03 79.23 1082.52 121.75 1082.52 121.75 1091.03 178.1 1091.03 178.1 1025.03 186.61 1025.03 186.61 982.51 178.1 982.51 178.1 745.47 186.61 745.47"/><polygon class="cls-1" points="360.31 292.56 360.31 284.06 402.83 284.06 402.83 292.56 639.86 292.56 639.86 284.06 682.38 284.06 682.38 292.56 748.48 292.83 748.48 57.56 682.38 57.28 682.38 65.79 639.86 65.79 639.86 57.28 402.83 57.28 402.83 65.79 360.31 65.79 360.31 57.28 294.41 57.56 294.41 292.83 360.31 292.56"/><polygon class="cls-1" points="506.08 645.46 484.19 645.46 484.19 636.96 475.43 636.96 475.43 702.74 483.94 702.74 483.94 745.25 475.43 745.25 475.43 982.29 483.94 982.29 483.94 1024.81 475.43 1024.81 475.43 1091.03 484.19 1091.03 484.19 1082.52 506.08 1082.52 506.08 645.46"/><path class="cls-1" d="M693,1100.33h67V646.26H693v8.51H650.52v-8.51H540.42v454.07h110.1v-8.93H693ZM640.38,757.42a40,40,0,1,1,40,40A40,40,0,0,1,640.38,757.42Zm0,113.18a40,40,0,1,1,40,40A40,40,0,0,1,640.38,870.6Zm0,113.19a40,40,0,1,1,40,40A40,40,0,0,1,640.38,983.79Z" transform="translate(-24.26 -9.31)"/><path class="cls-1" d="M766.61,434.55v-67H312.54v67H321v42.52h-8.5V587.18H766.61V477.07h-8.94V434.55ZM423.69,482.26a40,40,0,1,1,40-40A40,40,0,0,1,423.69,482.26Zm59.21,64.38a11.34,11.34,0,1,1,11.34-11.34A11.34,11.34,0,0,1,482.9,546.64Zm56.39-2.83a8.51,8.51,0,1,1,8.5-8.51A8.5,8.5,0,0,1,539.29,543.81Zm-2.41-61.55a40,40,0,1,1,40-40A40,40,0,0,1,536.88,482.26Zm58.8,64.38A11.34,11.34,0,1,1,607,535.3,11.34,11.34,0,0,1,595.68,546.64Zm54.38-64.38a40,40,0,1,1,40-40A40,40,0,0,1,650.06,482.26Z" transform="translate(-24.26 -9.31)"/><path class="cls-2" d="M414.43,537.32l3.19-4.82h-2.88v-1.73h5.42V532L417,536.84h3.21v1.73h-5.75Z" transform="translate(-24.26 -9.31)"/><path class="cls-2" d="M420.81,535.57a3,3,0,1,1,3,3.14A3,3,0,0,1,420.81,535.57Zm3.84,0c0-.91-.24-1.49-.86-1.49s-.87.58-.87,1.49.24,1.49.87,1.49S424.65,536.48,424.65,535.57Z" transform="translate(-24.26 -9.31)"/><path class="cls-2" d="M427.53,535.57a3,3,0,1,1,3,3.14A3,3,0,0,1,427.53,535.57Zm3.84,0c0-.91-.24-1.49-.86-1.49s-.87.58-.87,1.49.24,1.49.87,1.49S431.37,536.48,431.37,535.57Z" transform="translate(-24.26 -9.31)"/><path class="cls-2" d="M434.56,532.57h1.68l.15.73h0a2.49,2.49,0,0,1,1.8-.87,1.69,1.69,0,0,1,1.66,1,2.51,2.51,0,0,1,1.85-1c1.31,0,1.89,1,1.89,2.45v3.69h-2.06v-3.43c0-.77-.19-1-.6-1a1.27,1.27,0,0,0-.84.45v3.94h-2.06v-3.43c0-.77-.2-1-.6-1a1.27,1.27,0,0,0-.84.45v3.94h-2.07Z" transform="translate(-24.26 -9.31)"/><path class="cls-2" d="M627.48,534.73a3.83,3.83,0,0,1,3.89-4.1,3.44,3.44,0,0,1,2.54,1l-1.08,1.25a1.87,1.87,0,0,0-1.39-.51c-1.05,0-1.84.84-1.84,2.26s.64,2.28,2,2.28a1.11,1.11,0,0,0,.6-.15v-1.08h-1.15V534h3v3.71a3.93,3.93,0,0,1-2.64,1A3.69,3.69,0,0,1,627.48,534.73Z" transform="translate(-24.26 -9.31)"/><path class="cls-2" d="M635.09,535.57a3,3,0,1,1,3,3.14A3,3,0,0,1,635.09,535.57Zm3.84,0c0-.91-.24-1.49-.86-1.49s-.87.58-.87,1.49.24,1.49.87,1.49S638.93,536.48,638.93,535.57Z" transform="translate(-24.26 -9.31)"/><path class="cls-2" d="M641.81,535.57a3,3,0,1,1,3,3.14A3,3,0,0,1,641.81,535.57Zm3.84,0c0-.91-.24-1.49-.86-1.49s-.87.58-.87,1.49.24,1.49.87,1.49S645.65,536.48,645.65,535.57Z" transform="translate(-24.26 -9.31)"/><path class="cls-2" d="M648.51,539.55a1.3,1.3,0,0,1,.84-1.15v0a1.17,1.17,0,0,1-.55-1,1.46,1.46,0,0,1,.67-1.13v0a1.87,1.87,0,0,1-.82-1.54c0-1.49,1.25-2.18,2.57-2.18a3.27,3.27,0,0,1,1,.14h2.23v1.49h-.86a2.41,2.41,0,0,1,.09.62c0,1.42-1.08,2-2.42,2a3,3,0,0,1-.67-.08.39.39,0,0,0-.15.35c0,.26.24.36.84.36h.9c1.5,0,2.37.45,2.37,1.56,0,1.29-1.35,2.18-3.48,2.18C649.66,541,648.51,540.63,648.51,539.55Zm4-.33c0-.32-.29-.36-.8-.36h-.47a3,3,0,0,1-.87-.08.61.61,0,0,0-.21.44c0,.38.48.55,1.17.55S652.54,539.55,652.54,539.22Zm-.67-4.61c0-.55-.27-.81-.65-.81s-.65.26-.65.81.27.84.65.84S651.87,535.19,651.87,534.61Z" transform="translate(-24.26 -9.31)"/><path class="cls-2" d="M655.4,536.46v-6.24h2.06v6.31c0,.41.19.53.34.53a.59.59,0,0,0,.21,0l.24,1.52a2.71,2.71,0,0,1-1,.16C655.85,538.71,655.4,537.8,655.4,536.46Z" transform="translate(-24.26 -9.31)"/><path class="cls-2" d="M658.66,535.57a3,3,0,0,1,2.88-3.14c1.77,0,2.61,1.29,2.61,2.9a4,4,0,0,1-.08.86h-3.42a1.26,1.26,0,0,0,1.39,1,2.54,2.54,0,0,0,1.25-.36l.65,1.23a4.09,4.09,0,0,1-2.19.69A2.94,2.94,0,0,1,658.66,535.57Zm3.74-.72a.75.75,0,0,0-.81-.86.94.94,0,0,0-1,.86Z" transform="translate(-24.26 -9.31)"/><rect class="cls-1" x="156.43" y="390.15" width="25.51" height="13.61"/><circle class="cls-1" cx="145.66" cy="396.98" r="4"/><circle class="cls-1" cx="192.58" cy="396.98" r="4"/><line class="cls-3" x1="0.5" y1="593.36" x2="765.67" y2="593.36"/><polygon class="cls-1" points="207.03 349.31 207.03 340.7 164.51 340.7 164.51 349.31 16.6 349.31 16.6 349.31 8.1 349.31 8.1 371.21 16.6 371.21 66.69 469.4 59.08 473.28 78.4 511.16 86.02 507.27 116.58 567.18 164.51 567.18 164.51 575.69 207.03 575.69 207.03 567.18 264.25 567.18 264.25 349.31 207.03 349.31"/><polygon class="cls-1" points="207.03 57.6 207.03 49.09 164.51 49.09 164.51 57.6 116.58 57.6 86.02 117.51 78.4 113.62 59.08 151.5 66.69 155.38 16.6 253.57 8.1 253.57 8.1 275.47 16.6 275.47 164.51 275.47 164.51 284.08 207.03 284.08 207.03 275.47 264.25 275.47 264.25 57.6 207.03 57.6"/></g><g id="Layer_14" data-name="Layer 14"><path class="cls-2" d="M200.33,39c0-1.09,0-1.75-.06-2.32h2.16l.08,1.25h.06a2,2,0,0,1,1.83-1.41,1.64,1.64,0,0,1,.51.05V39a2.93,2.93,0,0,0-.65-.07c-.74,0-1.25.31-1.37.87a1.94,1.94,0,0,0,0,.44v3.4h-2.52Z" transform="translate(-24.26 -9.31)"/><path class="cls-2" d="M208.46,34.79a1.29,1.29,0,0,1-2.58,0,1.29,1.29,0,0,1,2.58,0Zm-2.55,8.8V36.7h2.52v6.89Z" transform="translate(-24.26 -9.31)"/><path class="cls-2" d="M216.85,36.7c0,.42-.07,1-.07,2.13v3.75a3.92,3.92,0,0,1-1.07,3.08,4.35,4.35,0,0,1-2.91.86,5.81,5.81,0,0,1-2.56-.52l.47-1.91a4.38,4.38,0,0,0,2,.51A1.45,1.45,0,0,0,214.3,43v-.3h0a2.12,2.12,0,0,1-1.72.77c-1.68,0-2.9-1.35-2.9-3.35,0-2.17,1.4-3.62,3.12-3.62a2,2,0,0,1,1.78.89h0l.08-.73Zm-2.59,2.84c0-.1,0-.22,0-.32a.9.9,0,0,0-.9-.78c-.6,0-1.12.58-1.12,1.68,0,.89.42,1.55,1.12,1.55a.88.88,0,0,0,.88-.69,1.73,1.73,0,0,0,0-.51Z" transform="translate(-24.26 -9.31)"/><path class="cls-2" d="M218.34,33.64h2.52v3.79h0a2.67,2.67,0,0,1,.81-.65,2.46,2.46,0,0,1,1.06-.24c1.55,0,2.4,1.11,2.4,3.06v4h-2.52V39.88c0-.81-.26-1.3-.89-1.3a.84.84,0,0,0-.82.54,1.18,1.18,0,0,0-.07.41v4.06h-2.52Z" transform="translate(-24.26 -9.31)"/><path class="cls-2" d="M229.39,34.74v2h1.43v1.85h-1.43v2c0,.83.2,1.16.8,1.16a3,3,0,0,0,.6,0v1.92a5.22,5.22,0,0,1-1.5.18,2.41,2.41,0,0,1-1.72-.62,2.92,2.92,0,0,1-.64-2.15V38.55h-.86V36.7h.86V35.3Z" transform="translate(-24.26 -9.31)"/><path class="cls-2" d="M524.15,43.59c0-.45.06-1.33.06-2.19V33.64h2.52V37.4h0a2.38,2.38,0,0,1,2-.86c1.64,0,2.84,1.35,2.82,3.46,0,2.5-1.57,3.74-3.17,3.74a2.17,2.17,0,0,1-2-1h0l-.1.88Zm2.58-3a3.27,3.27,0,0,0,0,.35,1,1,0,0,0,1,.83c.75,0,1.22-.56,1.22-1.65,0-.94-.37-1.64-1.22-1.64a1,1,0,0,0-1,.85c0,.11,0,.23,0,.34Z" transform="translate(-24.26 -9.31)"/><path class="cls-2" d="M536.71,43.59l-.14-.6h0a2.5,2.5,0,0,1-1.92.75,2.16,2.16,0,0,1-2.27-2.17c0-1.85,1.66-2.66,4-2.67v-.06c0-.28-.21-.59-1.12-.59a4.24,4.24,0,0,0-2,.52l-.45-1.61a6.47,6.47,0,0,1,2.86-.62c2.36,0,3.19,1.32,3.19,3v2.33a9.07,9.07,0,0,0,.11,1.68Zm-.29-3.15c-1,0-1.61.29-1.61.89a.63.63,0,0,0,.71.66.92.92,0,0,0,.87-.63,1.42,1.42,0,0,0,0-.36Z" transform="translate(-24.26 -9.31)"/><path class="cls-2" d="M545.7,43.45a5.33,5.33,0,0,1-1.9.28c-2.29,0-3.73-1.33-3.73-3.53,0-2,1.35-3.66,4-3.66a5.11,5.11,0,0,1,1.59.24l-.36,1.87a2.75,2.75,0,0,0-1.08-.19,1.66,1.66,0,0,0,.06,3.31,2.83,2.83,0,0,0,1.1-.17Z" transform="translate(-24.26 -9.31)"/><path class="cls-2" d="M549.27,39.5h0a8.14,8.14,0,0,1,.45-.84l1.13-2h3l-2.38,2.77,2.73,4.12h-3.11L549.78,41l-.51.67v2h-2.52v-10h2.52Z" transform="translate(-24.26 -9.31)"/><path class="cls-2" d="M483.63,335c0-.45.05-1.34.05-2.19V325h2.52v3.75h0a2.42,2.42,0,0,1,2-.85c1.64,0,2.85,1.34,2.82,3.46,0,2.49-1.57,3.74-3.17,3.74a2.2,2.2,0,0,1-2-1h0l-.09.89Zm2.57-3c0,.12,0,.25,0,.35a1.05,1.05,0,0,0,1,.82c.74,0,1.22-.56,1.22-1.65s-.38-1.64-1.22-1.64a1,1,0,0,0-1,.86c0,.11,0,.22,0,.33Z" transform="translate(-24.26 -9.31)"/><path class="cls-2" d="M499,332.62c0,1,0,1.77.05,2.36H496.9l-.11-.92h-.06a2.37,2.37,0,0,1-2.08,1.07c-1.54,0-2.44-1-2.44-3v-4.07h2.52v3.66c0,.88.29,1.36.88,1.36a.85.85,0,0,0,.82-.59.8.8,0,0,0,.07-.36v-4.07H499Z" transform="translate(-24.26 -9.31)"/><path class="cls-2" d="M503.35,326.12v2h1.43v1.85h-1.43v2c0,.82.2,1.16.8,1.16a2.88,2.88,0,0,0,.61-.06v1.92a5.26,5.26,0,0,1-1.5.19,2.48,2.48,0,0,1-1.73-.62,3,3,0,0,1-.64-2.16v-2.41H500v-1.85h.86v-1.4Z" transform="translate(-24.26 -9.31)"/><path class="cls-2" d="M508.72,326.12v2h1.42v1.85h-1.42v2c0,.82.19,1.16.79,1.16a2.88,2.88,0,0,0,.61-.06v1.92a5.26,5.26,0,0,1-1.5.19,2.45,2.45,0,0,1-1.72-.62,2.9,2.9,0,0,1-.65-2.16v-2.41h-.85v-1.85h.85v-1.4Z" transform="translate(-24.26 -9.31)"/><path class="cls-2" d="M518.28,331.46a3.48,3.48,0,0,1-3.72,3.67,3.43,3.43,0,0,1-3.66-3.56,3.48,3.48,0,0,1,3.8-3.64A3.38,3.38,0,0,1,518.28,331.46Zm-4.78.07c0,1,.34,1.82,1.13,1.82s1-.71,1-1.82c0-.95-.31-1.82-1.07-1.82S513.5,330.62,513.5,331.53Z" transform="translate(-24.26 -9.31)"/><path class="cls-2" d="M519.5,330.42c0-.91,0-1.71-.06-2.34h2.17l.11.89h.06a2.46,2.46,0,0,1,2.06-1c1.61,0,2.48,1.09,2.48,3V335H523.8v-3.76c0-.8-.29-1.26-.89-1.26a.87.87,0,0,0-.82.6,1.31,1.31,0,0,0-.07.51V335H519.5Z" transform="translate(-24.26 -9.31)"/><path class="cls-2" d="M527.94,332.86a4.52,4.52,0,0,0,1.92.52c.53,0,.74-.13.74-.38s-.16-.36-.9-.6c-1.51-.48-2-1.3-2-2.1,0-1.38,1.17-2.37,3-2.37a5.11,5.11,0,0,1,2.06.39l-.4,1.71a4.08,4.08,0,0,0-1.53-.38c-.43,0-.69.11-.69.4s.23.36,1,.63c1.36.44,1.88,1.14,1.89,2.14,0,1.31-1,2.3-3.15,2.3a5.39,5.39,0,0,1-2.35-.48Z" transform="translate(-24.26 -9.31)"/><path class="cls-2" d="M538.86,328.08l.4,2.54c.12.69.23,1.47.34,2.28h0c.12-.81.32-1.61.46-2.27l.55-2.55h2l.52,2.46c.17.77.34,1.55.46,2.36h0c.08-.81.21-1.61.34-2.39l.42-2.43h2.46l-2.06,6.9H542.4l-.47-2.05c-.14-.64-.24-1.22-.38-2.1h0a13.28,13.28,0,0,1-.37,2.07l-.5,2.08h-2.38l-2-6.9Z" transform="translate(-24.26 -9.31)"/><path class="cls-2" d="M550.28,326.18a1.29,1.29,0,0,1-2.58,0,1.29,1.29,0,0,1,2.58,0Zm-2.55,8.8v-6.9h2.52V335Z" transform="translate(-24.26 -9.31)"/><path class="cls-2" d="M554.58,326.12v2H556v1.85h-1.43v2c0,.82.2,1.16.8,1.16a2.85,2.85,0,0,0,.6-.06v1.92a5.15,5.15,0,0,1-1.5.19,2.45,2.45,0,0,1-1.72-.62,3,3,0,0,1-.65-2.16v-2.41h-.85v-1.85h.85v-1.4Z" transform="translate(-24.26 -9.31)"/><path class="cls-2" d="M557.18,325h2.52v3.78h0a2.64,2.64,0,0,1,.81-.64,2.33,2.33,0,0,1,1.06-.24c1.55,0,2.4,1.11,2.4,3.05v4h-2.52v-3.72c0-.81-.26-1.3-.89-1.3a.84.84,0,0,0-.82.55,1.12,1.12,0,0,0-.07.4V335h-2.52Z" transform="translate(-24.26 -9.31)"/><path class="cls-2" d="M571.1,326.12v2h1.43v1.85H571.1v2c0,.82.2,1.16.8,1.16a2.85,2.85,0,0,0,.6-.06v1.92a5.15,5.15,0,0,1-1.5.19,2.45,2.45,0,0,1-1.72-.62,3,3,0,0,1-.64-2.16v-2.41h-.86v-1.85h.86v-1.4Z" transform="translate(-24.26 -9.31)"/><path class="cls-2" d="M580.66,331.46a3.48,3.48,0,0,1-3.72,3.67,3.43,3.43,0,0,1-3.66-3.56,3.48,3.48,0,0,1,3.8-3.64A3.38,3.38,0,0,1,580.66,331.46Zm-4.77.07c0,1,.33,1.82,1.12,1.82s1-.71,1-1.82c0-.95-.31-1.82-1.07-1.82S575.89,330.62,575.89,331.53Z" transform="translate(-24.26 -9.31)"/><path class="cls-2" d="M588.78,328.08c0,.42-.07,1-.07,2.13V334a3.92,3.92,0,0,1-1.06,3.08,4.41,4.41,0,0,1-2.91.85,5.85,5.85,0,0,1-2.57-.52l.48-1.9a4.36,4.36,0,0,0,2,.5,1.45,1.45,0,0,0,1.59-1.55v-.31h0a2.12,2.12,0,0,1-1.73.77c-1.68,0-2.9-1.34-2.9-3.35,0-2.17,1.4-3.61,3.13-3.61a2,2,0,0,1,1.78.88h0l.09-.73Zm-2.59,2.85a1.66,1.66,0,0,0,0-.32.89.89,0,0,0-.89-.79c-.6,0-1.12.59-1.12,1.68,0,.9.42,1.56,1.12,1.56a.88.88,0,0,0,.88-.69,2.2,2.2,0,0,0,0-.52Z" transform="translate(-24.26 -9.31)"/><path class="cls-2" d="M597.13,328.08c0,.42-.07,1-.07,2.13V334a3.92,3.92,0,0,1-1.07,3.08,4.41,4.41,0,0,1-2.91.85,5.81,5.81,0,0,1-2.56-.52l.47-1.9a4.39,4.39,0,0,0,2,.5,1.45,1.45,0,0,0,1.6-1.55v-.31h0a2.12,2.12,0,0,1-1.72.77c-1.68,0-2.9-1.34-2.9-3.35,0-2.17,1.4-3.61,3.12-3.61a2,2,0,0,1,1.78.88h0l.08-.73Zm-2.59,2.85a3.16,3.16,0,0,0,0-.32.9.9,0,0,0-.9-.79c-.6,0-1.12.59-1.12,1.68,0,.9.42,1.56,1.12,1.56a.88.88,0,0,0,.88-.69,1.77,1.77,0,0,0,0-.52Z" transform="translate(-24.26 -9.31)"/><path class="cls-2" d="M598.62,325h2.52v10h-2.52Z" transform="translate(-24.26 -9.31)"/><path class="cls-2" d="M604.76,332.41c.08.55.88.86,1.76.86a6,6,0,0,0,1.89-.27l.32,1.68a6.72,6.72,0,0,1-2.57.44c-2.43,0-3.8-1.33-3.8-3.52a3.51,3.51,0,0,1,3.57-3.67c2.23,0,3.18,1.64,3.18,3.53a3.88,3.88,0,0,1-.1,1Zm2-1.71a1,1,0,0,0-1-1.12,1.14,1.14,0,0,0-1.08,1.12Z" transform="translate(-24.26 -9.31)"/><path class="cls-2" d="M608.52,635.33c0-.45.06-1.34.06-2.19v-7.76h2.52v3.75h0a2.4,2.4,0,0,1,2-.85c1.64,0,2.84,1.34,2.81,3.46,0,2.49-1.56,3.74-3.16,3.74a2.18,2.18,0,0,1-2-1h0l-.1.89Zm2.58-3a1.9,1.9,0,0,0,0,.35,1,1,0,0,0,1,.82c.74,0,1.22-.56,1.22-1.65s-.38-1.64-1.22-1.64a1,1,0,0,0-1,.86,1.84,1.84,0,0,0,0,.33Z" transform="translate(-24.26 -9.31)"/><path class="cls-2" d="M623.91,633c0,1,0,1.77.06,2.36H621.8l-.12-.92h0a2.39,2.39,0,0,1-2.09,1.07c-1.54,0-2.44-1-2.44-3v-4.07h2.53v3.66c0,.88.29,1.36.88,1.36a.84.84,0,0,0,.81-.59.68.68,0,0,0,.07-.36v-4.07h2.52Z" transform="translate(-24.26 -9.31)"/><path class="cls-2" d="M628.25,626.47v2h1.43v1.85h-1.43v2c0,.82.2,1.16.8,1.16a2.85,2.85,0,0,0,.6-.06v1.92a5.15,5.15,0,0,1-1.5.19,2.45,2.45,0,0,1-1.72-.62,3,3,0,0,1-.65-2.16v-2.41h-.85v-1.85h.85V627Z" transform="translate(-24.26 -9.31)"/><path class="cls-2" d="M633.61,626.47v2H635v1.85h-1.43v2c0,.82.2,1.16.8,1.16a2.77,2.77,0,0,0,.6-.06v1.92a5.15,5.15,0,0,1-1.5.19,2.45,2.45,0,0,1-1.72-.62,3,3,0,0,1-.64-2.16v-2.41h-.86v-1.85h.86V627Z" transform="translate(-24.26 -9.31)"/><path class="cls-2" d="M643.18,631.81a3.49,3.49,0,0,1-3.73,3.67,3.43,3.43,0,0,1-3.66-3.56,3.48,3.48,0,0,1,3.8-3.64A3.39,3.39,0,0,1,643.18,631.81Zm-4.78.07c0,1,.34,1.82,1.12,1.82s1.05-.71,1.05-1.82c0-1-.31-1.82-1.06-1.82S638.4,631,638.4,631.88Z" transform="translate(-24.26 -9.31)"/><path class="cls-2" d="M644.39,630.77c0-.91,0-1.71-.06-2.34h2.18l.11.89h0a2.47,2.47,0,0,1,2.06-1c1.61,0,2.48,1.09,2.48,3v4.07h-2.52v-3.76c0-.8-.28-1.26-.88-1.26a.88.88,0,0,0-.83.6,1.57,1.57,0,0,0-.07.51v3.91h-2.52Z" transform="translate(-24.26 -9.31)"/><path class="cls-2" d="M652.83,633.21a4.52,4.52,0,0,0,1.92.52c.53,0,.74-.13.74-.38s-.15-.36-.89-.6c-1.52-.48-2-1.3-2-2.1,0-1.38,1.16-2.37,3-2.37a5.19,5.19,0,0,1,2.06.39l-.41,1.71a4,4,0,0,0-1.52-.38c-.44,0-.69.11-.69.39s.22.37,1,.64c1.36.44,1.87,1.14,1.89,2.14,0,1.32-1,2.3-3.16,2.3a5.42,5.42,0,0,1-2.35-.48Z" transform="translate(-24.26 -9.31)"/><path class="cls-2" d="M661.86,630.77c0-.91,0-1.71-.05-2.34H664l.11.89h0a2.49,2.49,0,0,1,2.06-1c1.61,0,2.48,1.09,2.48,3v4.07h-2.52v-3.76c0-.8-.28-1.26-.88-1.26a.88.88,0,0,0-.83.6,1.57,1.57,0,0,0-.07.51v3.91h-2.52Z" transform="translate(-24.26 -9.31)"/><path class="cls-2" d="M677.28,631.81a3.48,3.48,0,0,1-3.73,3.67,3.42,3.42,0,0,1-3.65-3.56,3.48,3.48,0,0,1,3.79-3.64A3.39,3.39,0,0,1,677.28,631.81Zm-4.78.07c0,1,.34,1.82,1.12,1.82s1-.71,1-1.82c0-1-.3-1.82-1.06-1.82S672.5,631,672.5,631.88Z" transform="translate(-24.26 -9.31)"/><path class="cls-2" d="M684,626.47v2h1.43v1.85H684v2c0,.82.2,1.16.8,1.16a2.88,2.88,0,0,0,.61-.06v1.92a5.26,5.26,0,0,1-1.5.19,2.48,2.48,0,0,1-1.73-.62,3,3,0,0,1-.64-2.16v-2.41h-.85v-1.85h.85V627Z" transform="translate(-24.26 -9.31)"/><path class="cls-2" d="M693.59,631.81a3.48,3.48,0,0,1-3.73,3.67,3.42,3.42,0,0,1-3.65-3.56,3.48,3.48,0,0,1,3.79-3.64A3.39,3.39,0,0,1,693.59,631.81Zm-4.78.07c0,1,.34,1.82,1.12,1.82S691,633,691,631.88c0-1-.3-1.82-1.06-1.82S688.81,631,688.81,631.88Z" transform="translate(-24.26 -9.31)"/><path class="cls-2" d="M701.71,628.43c0,.42-.07,1-.07,2.13v3.76a3.92,3.92,0,0,1-1.07,3.08,4.38,4.38,0,0,1-2.91.85,5.81,5.81,0,0,1-2.56-.52l.47-1.9a4.39,4.39,0,0,0,2,.5,1.45,1.45,0,0,0,1.6-1.55v-.31h0a2.1,2.1,0,0,1-1.72.77c-1.68,0-2.9-1.34-2.9-3.35,0-2.17,1.4-3.61,3.12-3.61a2,2,0,0,1,1.78.88h0l.08-.73Zm-2.59,2.85a3.16,3.16,0,0,0,0-.32.89.89,0,0,0-.9-.79c-.6,0-1.12.59-1.12,1.68,0,.9.42,1.56,1.12,1.56a.89.89,0,0,0,.89-.69,2.2,2.2,0,0,0,0-.52Z" transform="translate(-24.26 -9.31)"/><path class="cls-2" d="M710.05,628.43c0,.42-.07,1-.07,2.13v3.76a3.92,3.92,0,0,1-1.06,3.08,4.41,4.41,0,0,1-2.91.85,5.85,5.85,0,0,1-2.57-.52l.48-1.9a4.36,4.36,0,0,0,2,.5,1.45,1.45,0,0,0,1.59-1.55v-.31h0a2.12,2.12,0,0,1-1.73.77c-1.68,0-2.9-1.34-2.9-3.35,0-2.17,1.4-3.61,3.13-3.61a2,2,0,0,1,1.78.88h0l.09-.73Zm-2.59,2.85a1.66,1.66,0,0,0,0-.32.89.89,0,0,0-.89-.79c-.61,0-1.12.59-1.12,1.68,0,.9.42,1.56,1.12,1.56a.88.88,0,0,0,.88-.69,2.2,2.2,0,0,0,0-.52Z" transform="translate(-24.26 -9.31)"/><path class="cls-2" d="M711.55,625.38h2.52v10h-2.52Z" transform="translate(-24.26 -9.31)"/><path class="cls-2" d="M717.68,632.76c.08.55.88.86,1.76.86a6.07,6.07,0,0,0,1.9-.27l.32,1.68a6.78,6.78,0,0,1-2.58.44c-2.42,0-3.8-1.34-3.8-3.52a3.51,3.51,0,0,1,3.58-3.67c2.22,0,3.18,1.64,3.18,3.53a4.46,4.46,0,0,1-.1,1Zm2-1.71a1,1,0,0,0-1-1.12,1.15,1.15,0,0,0-1.08,1.12Z" transform="translate(-24.26 -9.31)"/><path class="cls-2" d="M500.77,635.33v-5.05h-.88v-1.85h.88v-.23a3.11,3.11,0,0,1,.89-2.26,3,3,0,0,1,2-.71,4.75,4.75,0,0,1,1.16.12l-.06,1.93a2.38,2.38,0,0,0-.64-.08.82.82,0,0,0-.85.9v.33h1.26v1.85H503.3v5.05Z" transform="translate(-24.26 -9.31)"/><path class="cls-2" d="M505.56,630.76c0-1.09,0-1.75-.06-2.33h2.16l.08,1.25h.06a2,2,0,0,1,1.83-1.4,2,2,0,0,1,.51,0v2.37a2.93,2.93,0,0,0-.65-.07c-.74,0-1.24.31-1.37.87a1.8,1.8,0,0,0,0,.43v3.41h-2.52Z" transform="translate(-24.26 -9.31)"/><path class="cls-2" d="M518.12,631.81a3.49,3.49,0,0,1-3.73,3.67,3.42,3.42,0,0,1-3.65-3.56,3.48,3.48,0,0,1,3.79-3.64A3.39,3.39,0,0,1,518.12,631.81Zm-4.78.07c0,1,.34,1.82,1.12,1.82s1-.71,1-1.82c0-1-.31-1.82-1.06-1.82S513.34,631,513.34,631.88Z" transform="translate(-24.26 -9.31)"/><path class="cls-2" d="M519.33,630.77c0-.91,0-1.71-.05-2.34h2.17l.11.89h.06a2.45,2.45,0,0,1,2-1c1.62,0,2.48,1.09,2.48,3v4.07h-2.52v-3.76c0-.8-.28-1.26-.88-1.26a.89.89,0,0,0-.83.6,1.57,1.57,0,0,0-.07.51v3.91h-2.52Z" transform="translate(-24.26 -9.31)"/><path class="cls-2" d="M530.38,626.47v2h1.43v1.85h-1.43v2c0,.82.2,1.16.8,1.16a2.85,2.85,0,0,0,.6-.06v1.92a5.15,5.15,0,0,1-1.5.19,2.45,2.45,0,0,1-1.72-.62,3,3,0,0,1-.65-2.16v-2.41h-.85v-1.85h.85V627Z" transform="translate(-24.26 -9.31)"/><path class="cls-2" d="M345.09,635.33c0-.45.06-1.34.06-2.19v-7.76h2.52v3.75h0a2.39,2.39,0,0,1,2-.85c1.63,0,2.84,1.34,2.81,3.46,0,2.49-1.57,3.74-3.16,3.74a2.21,2.21,0,0,1-2-1h0l-.1.89Zm2.58-3a1.9,1.9,0,0,0,0,.35,1,1,0,0,0,1,.82c.74,0,1.22-.56,1.22-1.65s-.38-1.64-1.22-1.64a1,1,0,0,0-1,.86,1.84,1.84,0,0,0,0,.33Z" transform="translate(-24.26 -9.31)"/><path class="cls-2" d="M360.77,631.81a3.48,3.48,0,0,1-3.72,3.67,3.43,3.43,0,0,1-3.66-3.56,3.48,3.48,0,0,1,3.8-3.64A3.38,3.38,0,0,1,360.77,631.81Zm-4.77.07c0,1,.33,1.82,1.12,1.82s1.05-.71,1.05-1.82c0-1-.31-1.82-1.07-1.82S356,631,356,631.88Z" transform="translate(-24.26 -9.31)"/><path class="cls-2" d="M364.75,626.47v2h1.43v1.85h-1.43v2c0,.82.19,1.16.8,1.16a2.85,2.85,0,0,0,.6-.06v1.92a5.26,5.26,0,0,1-1.5.19,2.45,2.45,0,0,1-1.72-.62,3,3,0,0,1-.65-2.16v-2.41h-.85v-1.85h.85V627Z" transform="translate(-24.26 -9.31)"/><path class="cls-2" d="M370.11,626.47v2h1.43v1.85h-1.43v2c0,.82.2,1.16.8,1.16a2.85,2.85,0,0,0,.6-.06v1.92a5.15,5.15,0,0,1-1.5.19,2.45,2.45,0,0,1-1.72-.62,3,3,0,0,1-.65-2.16v-2.41h-.85v-1.85h.85V627Z" transform="translate(-24.26 -9.31)"/><path class="cls-2" d="M379.67,631.81a3.48,3.48,0,0,1-3.72,3.67,3.43,3.43,0,0,1-3.66-3.56,3.48,3.48,0,0,1,3.8-3.64A3.38,3.38,0,0,1,379.67,631.81Zm-4.77.07c0,1,.33,1.82,1.12,1.82s1.05-.71,1.05-1.82c0-1-.31-1.82-1.07-1.82S374.9,631,374.9,631.88Z" transform="translate(-24.26 -9.31)"/><path class="cls-2" d="M380.89,630.77c0-.91,0-1.71-.06-2.34H383l.09.86h.06a2.43,2.43,0,0,1,2-1,1.91,1.91,0,0,1,1.86,1.09h0a2.9,2.9,0,0,1,1-.81,2.67,2.67,0,0,1,1.22-.28c1.49,0,2.34,1.08,2.34,3v4.07h-2.45v-3.69c0-.85-.25-1.34-.81-1.34a.79.79,0,0,0-.77.58,1.53,1.53,0,0,0-.07.51v3.94H385v-3.76c0-.77-.24-1.27-.8-1.27a.82.82,0,0,0-.77.57,1.26,1.26,0,0,0-.07.51v4h-2.45Z" transform="translate(-24.26 -9.31)"/><path class="cls-2" d="M122.33,626.47v2h1.43v1.85h-1.43v2c0,.82.19,1.16.8,1.16a2.85,2.85,0,0,0,.6-.06v1.92a5.26,5.26,0,0,1-1.5.19,2.45,2.45,0,0,1-1.72-.62,3,3,0,0,1-.65-2.16v-2.41H119v-1.85h.85V627Z" transform="translate(-24.26 -9.31)"/><path class="cls-2" d="M131.89,631.81a3.48,3.48,0,0,1-3.72,3.67,3.43,3.43,0,0,1-3.66-3.56,3.48,3.48,0,0,1,3.8-3.64A3.38,3.38,0,0,1,131.89,631.81Zm-4.78.07c0,1,.34,1.82,1.13,1.82s1-.71,1-1.82c0-1-.31-1.82-1.07-1.82S127.11,631,127.11,631.88Z" transform="translate(-24.26 -9.31)"/><path class="cls-2" d="M133.11,630.77c0-.91,0-1.69-.06-2.34h2.17l.11.87h0a2.7,2.7,0,0,1,2.23-1c1.44,0,2.84,1.27,2.84,3.52,0,2.52-1.64,3.68-3.14,3.68a2,2,0,0,1-1.63-.66h0v3.28h-2.52Zm2.52,1.54a1.76,1.76,0,0,0,0,.42,1,1,0,0,0,1,.83c.76,0,1.22-.66,1.22-1.65s-.39-1.67-1.19-1.67a1.07,1.07,0,0,0-1,.9,1.12,1.12,0,0,0,0,.32Z" transform="translate(-24.26 -9.31)"/><rect class="cls-3" x="0.5" y="0.5" width="765.17" height="1134.35"/><path class="cls-2" d="M200.33,328h2.52v9.94h-2.52Z" transform="translate(-24.26 -9.31)"/><path class="cls-2" d="M206.46,335.34c.08.54.88.85,1.76.85a6.26,6.26,0,0,0,1.89-.26l.33,1.68a7,7,0,0,1-2.58.43c-2.42,0-3.8-1.33-3.8-3.51a3.5,3.5,0,0,1,3.57-3.67c2.23,0,3.18,1.63,3.18,3.52a4.66,4.66,0,0,1-.09,1Zm2-1.71a1,1,0,0,0-1-1.12,1.14,1.14,0,0,0-1.08,1.12Z" transform="translate(-24.26 -9.31)"/><path class="cls-2" d="M212.25,337.9v-5h-.88V331h.88v-.24a3.09,3.09,0,0,1,.9-2.25,2.93,2.93,0,0,1,2-.72,4.22,4.22,0,0,1,1.16.13l-.05,1.93a2.06,2.06,0,0,0-.65-.08.82.82,0,0,0-.85.89V331H216v1.85h-1.23v5Z" transform="translate(-24.26 -9.31)"/><path class="cls-2" d="M220,329.05v2h1.43v1.85H220v2c0,.83.2,1.17.8,1.17a2.77,2.77,0,0,0,.6-.06v1.92a5.19,5.19,0,0,1-1.49.18,2.47,2.47,0,0,1-1.73-.61,3,3,0,0,1-.64-2.16v-2.41h-.86V331h.86v-1.4Z" transform="translate(-24.26 -9.31)"/><path class="cls-2" d="M616.65,1123.78c0-1.08-.06-2.34,0-3.81h0c-.29,1.25-.68,2.66-1,3.7l-.94,3.29h-2l-.79-3.28c-.24-1-.54-2.42-.75-3.71h0c-.06,1.33-.12,2.73-.16,3.81l-.14,3.38h-2.32l.57-9.44h3.4l.63,2.53c.26,1,.54,2.31.73,3.46h.06c.27-1.15.57-2.48.85-3.47l.7-2.52h3.34l.47,9.44h-2.46Z" transform="translate(-24.26 -9.31)"/><path class="cls-2" d="M622.73,1124.59c.09.55.89.86,1.77.86a6,6,0,0,0,1.89-.27l.32,1.68a6.74,6.74,0,0,1-2.58.44c-2.42,0-3.79-1.33-3.79-3.52a3.5,3.5,0,0,1,3.57-3.67c2.23,0,3.18,1.64,3.18,3.53a4.37,4.37,0,0,1-.1.95Zm2-1.71a1,1,0,0,0-1-1.12,1.14,1.14,0,0,0-1.07,1.12Z" transform="translate(-24.26 -9.31)"/><path class="cls-2" d="M630.28,1124.59c.08.55.88.86,1.76.86a6,6,0,0,0,1.89-.27l.33,1.68a6.81,6.81,0,0,1-2.58.44c-2.42,0-3.8-1.33-3.8-3.52a3.51,3.51,0,0,1,3.58-3.67c2.22,0,3.18,1.64,3.18,3.53a4.37,4.37,0,0,1-.1.95Zm2-1.71a1,1,0,0,0-1-1.12,1.15,1.15,0,0,0-1.08,1.12Z" transform="translate(-24.26 -9.31)"/><path class="cls-2" d="M638.54,1118.3v2H640v1.85h-1.43v2c0,.83.2,1.16.8,1.16a4,4,0,0,0,.6,0v1.91a5.15,5.15,0,0,1-1.5.19,2.45,2.45,0,0,1-1.72-.62,3,3,0,0,1-.65-2.16v-2.41h-.85v-1.85h.85v-1.4Z" transform="translate(-24.26 -9.31)"/><path class="cls-2" d="M643.69,1118.36a1.29,1.29,0,0,1-2.58,0,1.29,1.29,0,0,1,2.58,0Zm-2.55,8.8v-6.9h2.52v6.9Z" transform="translate(-24.26 -9.31)"/><path class="cls-2" d="M645.23,1122.6c0-.91,0-1.7-.06-2.34h2.18l.11.89h0a2.46,2.46,0,0,1,2.06-1c1.61,0,2.48,1.09,2.48,3v4.07h-2.52v-3.76c0-.8-.28-1.26-.88-1.26a.88.88,0,0,0-.83.6,1.34,1.34,0,0,0-.07.51v3.91h-2.52Z" transform="translate(-24.26 -9.31)"/><path class="cls-2" d="M660.47,1120.26a18.94,18.94,0,0,0-.08,2.13v3.76a3.92,3.92,0,0,1-1.06,3.08,4.41,4.41,0,0,1-2.91.85,6,6,0,0,1-2.57-.51l.48-1.91a4.35,4.35,0,0,0,2,.51,1.45,1.45,0,0,0,1.6-1.56v-.31h0a2.12,2.12,0,0,1-1.72.77c-1.69,0-2.91-1.34-2.91-3.35,0-2.17,1.41-3.61,3.13-3.61a2,2,0,0,1,1.78.88h0l.08-.73Zm-2.6,2.85c0-.1,0-.23,0-.32a.92.92,0,0,0-.9-.79c-.6,0-1.12.59-1.12,1.68,0,.9.42,1.56,1.12,1.56a.88.88,0,0,0,.88-.69,2.2,2.2,0,0,0,0-.52Z" transform="translate(-24.26 -9.31)"/><path class="cls-2" d="M669.12,1126.92a6.45,6.45,0,0,1-2.38.38c-3.53,0-5.09-2.2-5.09-4.71,0-3.33,2.44-5,5.25-5a5.66,5.66,0,0,1,2.37.42l-.49,2a4.54,4.54,0,0,0-1.75-.34,2.79,2.79,0,0,0,0,5.58,5.33,5.33,0,0,0,1.7-.28Z" transform="translate(-24.26 -9.31)"/><path class="cls-2" d="M677.11,1123.64a3.48,3.48,0,0,1-3.72,3.67,3.43,3.43,0,0,1-3.66-3.56,3.48,3.48,0,0,1,3.8-3.64A3.38,3.38,0,0,1,677.11,1123.64Zm-4.77.07c0,1,.33,1.82,1.12,1.82s1-.71,1-1.82c0-1-.31-1.82-1.07-1.82S672.34,1122.8,672.34,1123.71Z" transform="translate(-24.26 -9.31)"/><path class="cls-2" d="M678.33,1122.6c0-.91,0-1.7-.06-2.34h2.17l.11.89h.06a2.46,2.46,0,0,1,2.06-1c1.61,0,2.48,1.09,2.48,3v4.07h-2.52v-3.76c0-.8-.28-1.26-.89-1.26a.87.87,0,0,0-.82.6,1.34,1.34,0,0,0-.07.51v3.91h-2.52Z" transform="translate(-24.26 -9.31)"/><path class="cls-2" d="M689.37,1118.3v2h1.43v1.85h-1.43v2c0,.83.2,1.16.8,1.16a3.84,3.84,0,0,0,.6,0v1.91a5.15,5.15,0,0,1-1.5.19,2.47,2.47,0,0,1-1.72-.62,3,3,0,0,1-.64-2.16v-2.41h-.86v-1.85h.86v-1.4Z" transform="translate(-24.26 -9.31)"/><path class="cls-2" d="M692,1122.59c0-1.09,0-1.75-.05-2.33h2.16l.08,1.25h.06a2,2,0,0,1,1.83-1.4,2,2,0,0,1,.51,0v2.37a2.93,2.93,0,0,0-.65-.07c-.74,0-1.25.31-1.37.87a1.85,1.85,0,0,0,0,.43v3.41H692Z" transform="translate(-24.26 -9.31)"/><path class="cls-2" d="M704.54,1123.64a3.49,3.49,0,0,1-3.73,3.67,3.42,3.42,0,0,1-3.65-3.56,3.48,3.48,0,0,1,3.79-3.64A3.39,3.39,0,0,1,704.54,1123.64Zm-4.78.07c0,1,.34,1.82,1.12,1.82s1-.71,1-1.82c0-1-.31-1.82-1.06-1.82S699.76,1122.8,699.76,1123.71Z" transform="translate(-24.26 -9.31)"/><path class="cls-2" d="M705.75,1117.21h2.52v10h-2.52Z" transform="translate(-24.26 -9.31)"/><path class="cls-2" d="M709.84,1117.21h2.52v10h-2.52Z" transform="translate(-24.26 -9.31)"/><path class="cls-2" d="M716,1124.59c.09.55.88.86,1.77.86a6,6,0,0,0,1.89-.27l.32,1.68a6.78,6.78,0,0,1-2.58.44c-2.42,0-3.79-1.33-3.79-3.52a3.5,3.5,0,0,1,3.57-3.67c2.23,0,3.18,1.64,3.18,3.53a4.37,4.37,0,0,1-.1.95Zm2-1.71a1,1,0,0,0-1-1.12,1.16,1.16,0,0,0-1.08,1.12Z" transform="translate(-24.26 -9.31)"/><path class="cls-2" d="M721.47,1122.59c0-1.09,0-1.75-.05-2.33h2.15l.09,1.25h.05a2,2,0,0,1,1.84-1.4,2,2,0,0,1,.5,0v2.37a2.77,2.77,0,0,0-.64-.07c-.74,0-1.25.31-1.37.87a1.81,1.81,0,0,0,0,.43v3.41h-2.52Z" transform="translate(-24.26 -9.31)"/><path class="cls-2" d="M731.74,1127.16l-3-9.44h2.77l1,3.71a32.76,32.76,0,0,1,.78,3.3h0c.24-1.16.5-2.25.78-3.26l1-3.75h2.69l-3.1,9.44Z" transform="translate(-24.26 -9.31)"/><path class="cls-2" d="M745.56,1122.59c0,2.68-1.14,4.72-3.59,4.72-2.6,0-3.57-2.31-3.57-4.69s1-4.72,3.6-4.72S745.56,1120.26,745.56,1122.59Zm-4.64,0c0,2,.41,2.82,1.08,2.82s1-.85,1-2.82-.38-2.8-1-2.8S740.92,1120.63,740.92,1122.6Z" transform="translate(-24.26 -9.31)"/><path class="cls-2" d="M746.67,1125.84a1.45,1.45,0,1,1,1.45,1.47A1.4,1.4,0,0,1,746.67,1125.84Z" transform="translate(-24.26 -9.31)"/><path class="cls-2" d="M757.54,1122.59c0,2.68-1.13,4.72-3.59,4.72s-3.57-2.31-3.57-4.69,1-4.72,3.6-4.72S757.54,1120.26,757.54,1122.59Zm-4.64,0c0,2,.41,2.82,1.08,2.82s1-.85,1-2.82-.38-2.8-1-2.8S752.9,1120.63,752.9,1122.6Z" transform="translate(-24.26 -9.31)"/><path class="cls-2" d="M758.66,1125.84a1.44,1.44,0,1,1,1.44,1.47A1.39,1.39,0,0,1,758.66,1125.84Z" transform="translate(-24.26 -9.31)"/><path class="cls-2" d="M762.93,1124.78a5.39,5.39,0,0,0,2.15.54c.9,0,1.49-.32,1.49-1s-.77-1.09-1.61-1.09H764v-1.79h.9c.63,0,1.43-.2,1.43-.83,0-.46-.44-.77-1.24-.77a4.51,4.51,0,0,0-1.93.52l-.48-1.81a6.26,6.26,0,0,1,3-.68c2,0,3.19,1,3.19,2.31a2.14,2.14,0,0,1-1.65,2.1v0a2.2,2.2,0,0,1,2,2.17c0,1.67-1.53,2.8-3.9,2.8a5.72,5.72,0,0,1-2.84-.64Z" transform="translate(-24.26 -9.31)"/></g><g id="Layer_11" data-name="Layer 11"><path class="cls-4" d="M211.61,261.15a7.55,7.55,0,0,0,0-.83v-1.21a.26.26,0,0,0-.27-.27h-5.28a.25.25,0,0,0-.26.27v1.78a.25.25,0,0,0,.26.27h2.82c-.05,1.23-1,2.33-2.9,2.33a3.72,3.72,0,0,1-.06-7.43,4,4,0,0,1,2.67,1,.25.25,0,0,0,.38,0l1.37-1.5a.23.23,0,0,0,0-.37,6.11,6.11,0,0,0-4.4-1.82,6.39,6.39,0,0,0-6.45,6.38,6.49,6.49,0,0,0,6.5,6.47,6.08,6.08,0,0,0,1.38-.15Zm7.41-3.84v8.39a.25.25,0,0,0,.26.27h4.39c3.17,0,4.65-1.23,4.65-3.6a3.22,3.22,0,0,0-2.44-3.07,2.72,2.72,0,0,0,1.51-2.58c0-1.78-1.3-3.22-3.74-3.22h-1.37ZM116,253.5h-8.07a.25.25,0,0,0-.27.26v1.91a.26.26,0,0,0,.27.27h2.65v9.76a.26.26,0,0,0,.27.27H113a.26.26,0,0,0,.27-.27v-9.76H116a.25.25,0,0,0,.26-.27v-1.91A.24.24,0,0,0,116,253.5Zm15,0h-2.22a.25.25,0,0,0-.27.26v4.87H124.1v-4.87a.24.24,0,0,0-.26-.26h-2.23a.25.25,0,0,0-.27.26V265.7a.26.26,0,0,0,.27.27h2.23a.25.25,0,0,0,.26-.27v-4.63h4.35v4.63a.26.26,0,0,0,.27.27h2.22a.26.26,0,0,0,.27-.27V253.76A.25.25,0,0,0,130.94,253.5Zm5.76,12.2V253.76a.25.25,0,0,1,.27-.26h2.23a.24.24,0,0,1,.26.26V265.7a.25.25,0,0,1-.26.27H137A.26.26,0,0,1,136.7,265.7Zm18.24-12.2h-2.23a.24.24,0,0,0-.26.26v7.79l-4.4-7.88a.36.36,0,0,0-.33-.17h-2.51a.24.24,0,0,0-.26.26V265.7a.25.25,0,0,0,.26.27h2.23a.26.26,0,0,0,.27-.27v-7.77l4.38,7.86a.35.35,0,0,0,.32.18h2.53a.26.26,0,0,0,.27-.27V253.76A.25.25,0,0,0,154.94,253.5Zm11.29,5.36,4.74,6.79c.12.17.05.32-.16.32h-2.64a.35.35,0,0,1-.32-.16L164.39,261l-.94,1.09v3.63a.26.26,0,0,1-.27.27H161a.26.26,0,0,1-.27-.27V253.76a.25.25,0,0,1,.27-.26h2.22a.25.25,0,0,1,.27.26v4.64l3.9-4.76a.38.38,0,0,1,.32-.14h2.78c.23,0,.27.16.14.32Zm9.68-5.1V265.7a.26.26,0,0,0,.27.27h2.22a.26.26,0,0,0,.27-.27V253.76a.25.25,0,0,0-.27-.26h-2.22A.25.25,0,0,0,175.91,253.76Zm16-.26h2.23a.25.25,0,0,1,.27.26V265.7a.26.26,0,0,1-.27.27h-2.53a.35.35,0,0,1-.32-.18l-4.38-7.86v7.77a.26.26,0,0,1-.27.27h-2.23a.26.26,0,0,1-.27-.27V253.76a.25.25,0,0,1,.27-.26h2.51a.33.33,0,0,1,.32.17l4.4,7.88v-7.79A.25.25,0,0,1,191.92,253.5Zm31.48,4.82c.84,0,1.41-.37,1.41-1.24s-.59-1.14-1.41-1.14h-1.62v2.38Zm-1.62,5.21h2c1.07,0,1.79-.48,1.79-1.5s-.75-1.43-1.79-1.43h-2Zm17.54,2.67a6.43,6.43,0,1,0-6.41-6.42A6.41,6.41,0,0,0,239.32,266.2Zm0-2.69a3.74,3.74,0,1,1,3.65-3.73A3.65,3.65,0,0,1,239.32,263.51Zm16.57-3.92,3.63,6.06c.11.19,0,.32-.18.32H257a.35.35,0,0,1-.32-.18L254.42,262l-2.24,3.76a.35.35,0,0,1-.32.18h-2.35c-.22,0-.29-.13-.18-.32l3.63-6.06-3.45-5.77c-.11-.2,0-.32.18-.32H252a.34.34,0,0,1,.32.17l2.06,3.46,2.07-3.46a.34.34,0,0,1,.32-.17h2.35c.22,0,.29.12.18.32Z" transform="translate(-24.26 -9.31)"/><path class="cls-2" d="M94.47,251.36H78.59a.44.44,0,0,0-.35.16l-4.67,4.67a.47.47,0,0,0-.14.33v11.06a.47.47,0,0,0,.47.47H89.78a.5.5,0,0,0,.35-.14l4.66-4.67a.43.43,0,0,0,.14-.33V251.82A.47.47,0,0,0,94.47,251.36Zm-1.07,12.3H78.05a.26.26,0,0,1-.25-.26V252.9H93.12c.17,0,.28.09.28.23Z" transform="translate(-24.26 -9.31)"/><path class="cls-4" d="M593.58,948.65a9.55,9.55,0,0,0,1.2.07h1.76a.37.37,0,0,0,.39-.39v-7.66a.36.36,0,0,0-.39-.38H594a.36.36,0,0,0-.39.38v4.09c-1.79-.08-3.39-1.5-3.39-4.21a5.4,5.4,0,0,1,10.79-.08,5.83,5.83,0,0,1-1.45,3.88.35.35,0,0,0,0,.54l2.18,2a.35.35,0,0,0,.54,0,8.85,8.85,0,0,0,2.64-6.39,9.27,9.27,0,0,0-9.26-9.36,9.41,9.41,0,0,0-9.39,9.44,9,9,0,0,0,.21,2Zm5.57,10.75H587a.36.36,0,0,0-.38.39v6.36c0,4.61,1.78,6.75,5.22,6.75a4.67,4.67,0,0,0,4.45-3.54,4,4,0,0,0,3.75,2.2c2.59,0,4.68-1.89,4.68-5.43v-2Zm5.54-149.61V798.07a.37.37,0,0,0-.39-.39h-2.77a.36.36,0,0,0-.38.39v3.85H587a.36.36,0,0,0-.38.39v3.23a.36.36,0,0,0,.38.39h14.18v3.86a.36.36,0,0,0,.38.38h2.77A.36.36,0,0,0,604.69,809.79Zm0,21.77v-3.24a.36.36,0,0,0-.39-.38h-7.06v-6.31h7.06a.37.37,0,0,0,.39-.39V818a.36.36,0,0,0-.39-.38H587a.36.36,0,0,0-.38.38v3.24a.36.36,0,0,0,.38.39h6.73v6.31H587a.36.36,0,0,0-.38.38v3.24a.36.36,0,0,0,.38.38H604.3A.36.36,0,0,0,604.69,831.56ZM587,839.91H604.3a.37.37,0,0,1,.39.39v3.23a.36.36,0,0,1-.39.39H587a.36.36,0,0,1-.38-.39V840.3A.36.36,0,0,1,587,839.91Zm17.72,26.48v-3.23a.36.36,0,0,0-.39-.39H593l11.43-6.39a.49.49,0,0,0,.26-.46v-3.65a.37.37,0,0,0-.39-.39H587a.36.36,0,0,0-.38.39v3.23a.36.36,0,0,0,.38.39h11.28l-11.41,6.36a.5.5,0,0,0-.25.47v3.67a.36.36,0,0,0,.38.39H604.3A.37.37,0,0,0,604.69,866.39Zm-7.78,16.39-9.86,6.88c-.26.18-.46.07-.46-.24V885.6a.5.5,0,0,1,.23-.47l7-5-1.58-1.37H587a.36.36,0,0,1-.38-.39v-3.23a.36.36,0,0,1,.38-.39H604.3a.37.37,0,0,1,.39.39v3.23a.36.36,0,0,1-.39.39h-6.72l6.9,5.67a.54.54,0,0,1,.21.46v4c0,.33-.23.38-.47.2Zm7.39,14.05H587a.36.36,0,0,0-.38.39v3.23a.36.36,0,0,0,.38.39H604.3a.37.37,0,0,0,.39-.39v-3.23A.36.36,0,0,0,604.3,896.83Zm.39,23.24v3.23a.36.36,0,0,1-.39.39H587a.36.36,0,0,1-.38-.39v-3.67a.48.48,0,0,1,.25-.46l11.41-6.37H587a.36.36,0,0,1-.38-.38v-3.24a.36.36,0,0,1,.38-.38H604.3a.36.36,0,0,1,.39.38v3.65a.51.51,0,0,1-.26.47L593,919.68h11.3A.37.37,0,0,1,604.69,920.07Zm-7,45.7c0,1.21.54,2,1.81,2s1.66-.85,1.66-2v-2.36h-3.47Zm-7.55-2.36v2.9c0,1.55.7,2.59,2.17,2.59s2.07-1.09,2.07-2.59v-2.9Zm-3.88,25.47a9.33,9.33,0,1,0,9.31-9.31A9.31,9.31,0,0,0,586.25,988.88Zm3.91,0a5.43,5.43,0,1,1,5.4,5.3A5.29,5.29,0,0,1,590.16,988.88Zm5.69,24-8.8,5.28c-.28.15-.46,0-.46-.26v-3.41a.49.49,0,0,1,.25-.47l5.46-3.26-5.46-3.26a.48.48,0,0,1-.25-.46v-3.42c0-.31.18-.41.46-.26l8.8,5.28,8.37-5c.29-.15.47,0,.47.26v3.42a.49.49,0,0,1-.26.46l-5,3,5,3a.5.5,0,0,1,.26.47v3.41c0,.31-.18.41-.47.26Z" transform="translate(-24.26 -9.31)"/><path class="cls-2" d="M607.79,778.61V755.56a.64.64,0,0,0-.23-.51l-6.78-6.77a.66.66,0,0,0-.47-.2H584.24a.67.67,0,0,0-.67.67v23a.69.69,0,0,0,.2.51l6.78,6.77a.63.63,0,0,0,.47.2h16.1A.67.67,0,0,0,607.79,778.61Zm-17.85-1.55V754.78a.38.38,0,0,1,.37-.37h15.25v22.24a.36.36,0,0,1-.34.41Z" transform="translate(-24.26 -9.31)"/></g></svg>